<?xml version="1.0" encoding="UTF-8" standalone="no"?>
<svg 
   width="361.91998pt"
   height="228pt"
   viewBox="0 0 361.91998 228"
   version="1.1"
   id="svg52"
   xmlns="http://www.w3.org/2000/svg"
   xmlns:svg="http://www.w3.org/2000/svg" content="%3Cmxfile%20host%3D%22app.diagrams.net%22%20modified%3D%222022-09-10T16%3A42%3A03.704Z%22%20agent%3D%225.0%20(X11%3B%20Linux%20x86_64)%20AppleWebKit%2F537.36%20(KHTML%2C%20like%20Gecko)%20Chrome%2F104.0.0.0%20Safari%2F537.36%22%20etag%3D%22pVpuRxU8zicG-NsKyfAL%22%20version%3D%2220.3.0%22%20type%3D%22google%22%3E%3Cdiagram%20id%3D%22dwgRDLsmon6XDYJI8ZZl%22%20name%3D%22CNN%22%3E1VbJbtswEP0aH2Noj3xMbNdFm9QJ3PUUUORYYk2JLkVv%2BfqSFrUrsHtogQIGTD4Oh8N5jzMaudP0uBBomzxyAmzkWOQ4cmcjx7E9xxnpn0VOBXJrGyAWlBijGljRVzCgZdAdJZC3DCXnTNJtG8Q8ywDLFoaE4Ie22Zqz9qlbFJsTrRpYYcSgZ%2FaNEpkY1LYa5u%2BBxok5OvTNQopKYwPkCSL80IDc%2BcidCs5lMUqPU2A6eWVein3v3litAhOQyWs2LKbPM7p%2BlZv9Zv%2F4nM5uJg%2FPN8bLHrGdubAJVp7KDKi4t3qId5H6uz8kVMJqi7DGDop0hSUyZWpmq2HEdxkB8hBVAMKbWGh0uZOMZmBwgsRmqdxQqZVhjS2%2FDTpnVFtWibP0ZAMSJ%2BWkkIujx2vK2JQzLs5Ru8SHkHjaRgq%2BgcZK6ERuEFQrJauO8bEyN0c7yRXEqxAn%2BpR%2B0ssMgpBwbECGhAXwFKQ4KROzWgrEPIhKH4eGvFyDJQ1lVSAyko4r1zXramCIHxaBNxdONJPyaflrGXhelnz5%2BPkaEVxgvdRIeox1GRhHKKd4THNuRKNGd1l8dmb7w4nu8LcOMWDcJ6BHZxT6nl9T0%2BNhgK03qfHCNjeu3efGH6DG%2F1vMuJeZgYzc6TqnXyhDucp7mxpRPEjzYlQixOl7c%2FKjOZkdWzOdBtsZW5Y7cW8nvmdZflguPoGg6pIgzI4iMCBxt3D2nkrOdwLD5aIkkYhBXtJtn8wryRLAkKT7drhDDJoTnjhVF6mfcdDRStgRQXFNs6tZlzuOArvjqPvOizz0HJ0FVV37Ko0h9HJ42Sznjx9y%2F2v6Sn5%2Bwvy%2FaAGECtXcKc8UAihXTN5jzhja5jQ6B9ntBu020Wwg3T6BIFzjocIS4BCi9WCfqGtS8O%2BagmsNiLkC%2F6D0qGn91VGoqP52c%2Be%2FAQ%3D%3D%3C%2Fdiagram%3E%3C%2Fmxfile%3E">
  <defs
     id="defs14">
    <clipPath
       id="clip-0">
      <path
         clip-rule="nonzero"
         d="M 312 57 L 361.921875 57 L 361.921875 117 L 312 117 Z M 312 57 "
         id="path2" />
    </clipPath>
    <clipPath
       id="clip-1">
      <path
         clip-rule="nonzero"
         d="M 312 66 L 361.921875 66 L 361.921875 117 L 312 117 Z M 312 66 "
         id="path5" />
    </clipPath>
    <clipPath
       id="clip-2">
      <path
         clip-rule="nonzero"
         d="M 0 0 L 247 0 L 247 227.09375 L 0 227.09375 Z M 0 0 "
         id="path8" />
    </clipPath>
    <clipPath
       id="clip-3">
      <path
         clip-rule="nonzero"
         d="M 0 0 L 247 0 L 247 227.09375 L 0 227.09375 Z M 0 0 "
         id="path11" />
    </clipPath>
  </defs>
  <path
     fill-rule="nonzero"
     fill="rgb(83.529663%, 90.979004%, 83.139038%)"
     fill-opacity="0.902"
     stroke-width="2"
     stroke-linecap="butt"
     stroke-linejoin="miter"
     stroke="rgb(50.979614%, 70.199585%, 39.99939%)"
     stroke-opacity="0.902"
     stroke-miterlimit="10"
     d="M 1.000691 1.000691 L 110.998485 1.000691 L 131.001874 20.998868 L 131.001874 131.001874 L 20.998868 131.001874 L 1.000691 110.998485 Z M 1.000691 1.000691 "
     transform="matrix(0.749482, 0, 0, 0.749482, 0, 0)"
     id="path16" />
  <path
     fill-rule="nonzero"
     fill="rgb(0%, 0%, 0%)"
     fill-opacity="0.0431"
     d="M 0.75 0.75 L 83.191406 0.75 L 98.183594 15.738281 L 15.738281 15.738281 Z M 0.75 0.75 "
     id="path18" />
  <path
     fill-rule="nonzero"
     fill="rgb(0%, 0%, 0%)"
     fill-opacity="0.0902"
     d="M 0.75 0.75 L 15.738281 15.738281 L 15.738281 98.183594 L 0.75 83.191406 Z M 0.75 0.75 "
     id="path20" />
  <path
     fill="none"
     stroke-width="2"
     stroke-linecap="butt"
     stroke-linejoin="miter"
     stroke="rgb(50.979614%, 70.199585%, 39.99939%)"
     stroke-opacity="0.902"
     stroke-miterlimit="10"
     d="M 20.998868 131.001874 L 20.998868 20.998868 L 1.000691 1.000691 M 20.998868 20.998868 L 131.001874 20.998868 "
     transform="matrix(0.749482, 0, 0, 0.749482, 0, 0)"
     id="path22" />
  <path
     fill-rule="nonzero"
     fill="rgb(97.24884%, 80.778503%, 79.998779%)"
     fill-opacity="0.902"
     d="M 342.140625 68.578125 L 360.875 77.570313 L 360.875 97.058594 L 342.140625 106.050781 L 323.402344 97.058594 L 323.402344 77.570313 Z M 342.140625 68.578125 "
     id="path24" />
  <g
     clip-path="url(#clip-0)"
     id="g28">
    <path
       fill="none"
       stroke-width="1"
       stroke-linecap="butt"
       stroke-linejoin="miter"
       stroke="#b85450"
       stroke-opacity="0.902"
       stroke-miterlimit="10"
       d="m 456.00257,91.000652 24.99642,11.997868 v 26.00232 l -24.99642,11.99786 -25.00163,-11.99786 v -26.00232 z m 0,0"
       transform="matrix(0.749482,0,0,0.749482,0.374741,0.374741)"
       id="path26" />
  </g>
  <g
     clip-path="url(#clip-1)"
     id="g32">
    <path
       fill="none"
       stroke-width="1"
       stroke-linecap="butt"
       stroke-linejoin="miter"
       stroke="#b85450"
       stroke-opacity="0.902"
       stroke-miterlimit="10"
       d="m 431.00094,102.99852 25.00163,12.0135 24.99642,-12.0135 m -24.99642,12.0135 v 25.98668"
       transform="matrix(0.749482,0,0,0.749482,0.374741,0.374741)"
       id="path30" />
  </g>
  <path
     fill="none"
     stroke-width="1"
     stroke-linecap="butt"
     stroke-linejoin="miter"
     stroke="rgb(0%, 0%, 0%)"
     stroke-opacity="1"
     stroke-miterlimit="10"
     d="M 131.002219 72.592114 L 424.658021 102.357449 "
     transform="matrix(0.749482, 0, 0, 0.749482, 0.374741, 0.374741)"
     id="path34" />
  <path
     fill-rule="nonzero"
     fill="rgb(0%, 0%, 0%)"
     fill-opacity="1"
     stroke-width="1"
     stroke-linecap="butt"
     stroke-linejoin="miter"
     stroke="rgb(0%, 0%, 0%)"
     stroke-opacity="1"
     stroke-miterlimit="10"
     d="M 429.8908 102.889066 L 422.568037 105.672237 L 424.658021 102.357449 L 423.282072 98.698674 Z M 429.8908 102.889066 "
     transform="matrix(0.749482, 0, 0, 0.749482, 0.374741, 0.374741)"
     id="path36" />
  <path
     fill-rule="nonzero"
     fill="rgb(85.488892%, 90.979004%, 98.81897%)"
     fill-opacity="0.6"
     d="M 0.75 0.75 L 210.605469 0.75 L 225.59375 15.738281 L 225.59375 225.59375 L 15.738281 225.59375 L 0.75 210.605469 Z M 0.75 0.75 "
     id="path38" />
  <g
     clip-path="url(#clip-2)"
     id="g42">
    <path
       fill="none"
       stroke-width="2"
       stroke-linecap="butt"
       stroke-linejoin="miter"
       stroke="#6c8ebf"
       stroke-opacity="0.6"
       stroke-miterlimit="10"
       d="M 1.000691,1.000691 H 281.00123 l 19.99818,19.998177 V 300.99941 H 20.998868 L 1.000691,281.00123 Z m 0,0"
       transform="scale(0.749482)"
       id="path40" />
  </g>
  <path
     fill-rule="nonzero"
     fill="rgb(0%, 0%, 0%)"
     fill-opacity="0.0314"
     d="M 0.75 0.75 L 210.605469 0.75 L 225.59375 15.738281 L 15.738281 15.738281 Z M 0.75 0.75 "
     id="path44" />
  <path
     fill-rule="nonzero"
     fill="rgb(0%, 0%, 0%)"
     fill-opacity="0.0588"
     d="M 0.75 0.75 L 15.738281 15.738281 L 15.738281 225.59375 L 0.75 210.605469 Z M 0.75 0.75 "
     id="path46" />
  <g
     clip-path="url(#clip-3)"
     id="g50">
    <path
       fill="none"
       stroke-width="2"
       stroke-linecap="butt"
       stroke-linejoin="miter"
       stroke="#6c8ebf"
       stroke-opacity="0.6"
       stroke-miterlimit="10"
       d="M 20.998868,300.99941 V 20.998868 L 1.000691,1.000691 M 20.998868,20.998868 H 300.99941"
       transform="scale(0.749482)"
       id="path48" />
  </g>
</svg>
