<?xml version="1.0" encoding="UTF-8"?>
<svg xmlns="http://www.w3.org/2000/svg" xmlns:xlink="http://www.w3.org/1999/xlink" width="441pt" height="135pt" viewBox="0 0 441 135" version="1.1">
<g id="surface1">
<path style=" stroke:none;fill-rule:nonzero;fill:rgb(12.941176%,30.980392%,51.764706%);fill-opacity:0.25098;" d="M 157.5 130 L 282.5 130 L 282.5 5 L 157.5 5 Z M 157.5 130 "/>
<path style="fill:none;stroke-width:1;stroke-linecap:round;stroke-linejoin:round;stroke:rgb(0%,0%,0%);stroke-opacity:1;stroke-miterlimit:10;" d="M 25 145 L 125 145 L 125 245 L 25 245 Z M 25 145 " transform="matrix(1.25,0,0,1.25,126.25,-176.25)"/>
<path style=" stroke:none;fill-rule:nonzero;fill:rgb(12.941176%,30.980392%,51.764706%);fill-opacity:0.25098;" d="M 313.75 130 L 438.75 130 L 438.75 5 L 313.75 5 Z M 313.75 130 "/>
<path style="fill:none;stroke-width:1;stroke-linecap:round;stroke-linejoin:round;stroke:rgb(0%,0%,0%);stroke-opacity:1;stroke-miterlimit:10;" d="M 150 145 L 250 145 L 250 245 L 150 245 Z M 150 145 " transform="matrix(1.25,0,0,1.25,126.25,-176.25)"/>
<path style=" stroke:none;fill-rule:nonzero;fill:rgb(12.941176%,30.980392%,51.764706%);fill-opacity:0.25098;" d="M 157.5 17.5 L 282.5 17.5 L 282.5 5 L 157.5 5 Z M 157.5 17.5 "/>
<path style="fill:none;stroke-width:1;stroke-linecap:round;stroke-linejoin:round;stroke:rgb(0%,0%,0%);stroke-opacity:1;stroke-miterlimit:10;" d="M 25 145 L 125 145 L 125 155 L 25 155 Z M 25 145 " transform="matrix(1.25,0,0,1.25,126.25,-176.25)"/>
<path style=" stroke:none;fill-rule:nonzero;fill:rgb(12.941176%,30.980392%,51.764706%);fill-opacity:0.25098;" d="M 157.5 130 L 282.5 130 L 282.5 117.5 L 157.5 117.5 Z M 157.5 130 "/>
<path style="fill:none;stroke-width:1;stroke-linecap:round;stroke-linejoin:round;stroke:rgb(0%,0%,0%);stroke-opacity:1;stroke-miterlimit:10;" d="M 25 235 L 125 235 L 125 245 L 25 245 Z M 25 235 " transform="matrix(1.25,0,0,1.25,126.25,-176.25)"/>
<path style=" stroke:none;fill-rule:nonzero;fill:rgb(12.941176%,30.980392%,51.764706%);fill-opacity:0.25098;" d="M 157.5 130 L 170 130 L 170 5 L 157.5 5 Z M 157.5 130 "/>
<path style="fill:none;stroke-width:1;stroke-linecap:round;stroke-linejoin:round;stroke:rgb(0%,0%,0%);stroke-opacity:1;stroke-miterlimit:10;" d="M 25 145 L 35 145 L 35 245 L 25 245 Z M 25 145 " transform="matrix(1.25,0,0,1.25,126.25,-176.25)"/>
<path style=" stroke:none;fill-rule:nonzero;fill:rgb(12.941176%,30.980392%,51.764706%);fill-opacity:0.25098;" d="M 270 130 L 282.5 130 L 282.5 5 L 270 5 Z M 270 130 "/>
<path style="fill:none;stroke-width:1;stroke-linecap:round;stroke-linejoin:round;stroke:rgb(0%,0%,0%);stroke-opacity:1;stroke-miterlimit:10;" d="M 115 145 L 125 145 L 125 245 L 115 245 Z M 115 145 " transform="matrix(1.25,0,0,1.25,126.25,-176.25)"/>
<path style=" stroke:none;fill-rule:nonzero;fill:rgb(12.941176%,30.980392%,51.764706%);fill-opacity:0.25098;" d="M 313.75 17.5 L 438.75 17.5 L 438.75 5 L 313.75 5 Z M 313.75 17.5 "/>
<path style="fill:none;stroke-width:1;stroke-linecap:round;stroke-linejoin:round;stroke:rgb(0%,0%,0%);stroke-opacity:1;stroke-miterlimit:10;" d="M 150 145 L 250 145 L 250 155 L 150 155 Z M 150 145 " transform="matrix(1.25,0,0,1.25,126.25,-176.25)"/>
<path style=" stroke:none;fill-rule:nonzero;fill:rgb(12.941176%,30.980392%,51.764706%);fill-opacity:0.25098;" d="M 313.75 130 L 438.75 130 L 438.75 117.5 L 313.75 117.5 Z M 313.75 130 "/>
<path style="fill:none;stroke-width:1;stroke-linecap:round;stroke-linejoin:round;stroke:rgb(0%,0%,0%);stroke-opacity:1;stroke-miterlimit:10;" d="M 150 235 L 250 235 L 250 245 L 150 245 Z M 150 235 " transform="matrix(1.25,0,0,1.25,126.25,-176.25)"/>
<path style=" stroke:none;fill-rule:nonzero;fill:rgb(12.941176%,30.980392%,51.764706%);fill-opacity:0.25098;" d="M 313.75 130 L 326.25 130 L 326.25 5 L 313.75 5 Z M 313.75 130 "/>
<path style="fill:none;stroke-width:1;stroke-linecap:round;stroke-linejoin:round;stroke:rgb(0%,0%,0%);stroke-opacity:1;stroke-miterlimit:10;" d="M 150 145 L 160 145 L 160 245 L 150 245 Z M 150 145 " transform="matrix(1.25,0,0,1.25,126.25,-176.25)"/>
<path style=" stroke:none;fill-rule:nonzero;fill:rgb(12.941176%,30.980392%,51.764706%);fill-opacity:0.25098;" d="M 426.25 130 L 438.75 130 L 438.75 5 L 426.25 5 Z M 426.25 130 "/>
<path style="fill:none;stroke-width:1;stroke-linecap:round;stroke-linejoin:round;stroke:rgb(0%,0%,0%);stroke-opacity:1;stroke-miterlimit:10;" d="M 240 145 L 250 145 L 250 245 L 240 245 Z M 240 145 " transform="matrix(1.25,0,0,1.25,126.25,-176.25)"/>
<path style=" stroke:none;fill-rule:nonzero;fill:rgb(12.941176%,30.980392%,51.764706%);fill-opacity:0.25098;" d="M 313.75 130 L 338.75 130 L 338.75 5 L 313.75 5 Z M 313.75 130 "/>
<path style="fill:none;stroke-width:1;stroke-linecap:round;stroke-linejoin:round;stroke:rgb(0%,0%,0%);stroke-opacity:1;stroke-miterlimit:10;" d="M 150 145 L 170 145 L 170 245 L 150 245 Z M 150 145 " transform="matrix(1.25,0,0,1.25,126.25,-176.25)"/>
<path style=" stroke:none;fill-rule:nonzero;fill:rgb(12.941176%,30.980392%,51.764706%);fill-opacity:0.25098;" d="M 413.75 130 L 438.75 130 L 438.75 5 L 413.75 5 Z M 413.75 130 "/>
<path style="fill:none;stroke-width:1;stroke-linecap:round;stroke-linejoin:round;stroke:rgb(0%,0%,0%);stroke-opacity:1;stroke-miterlimit:10;" d="M 230 145 L 250 145 L 250 245 L 230 245 Z M 230 145 " transform="matrix(1.25,0,0,1.25,126.25,-176.25)"/>
<path style=" stroke:none;fill-rule:nonzero;fill:rgb(12.941176%,30.980392%,51.764706%);fill-opacity:0.25098;" d="M 313.75 30 L 438.75 30 L 438.75 5 L 313.75 5 Z M 313.75 30 "/>
<path style="fill:none;stroke-width:1;stroke-linecap:round;stroke-linejoin:round;stroke:rgb(0%,0%,0%);stroke-opacity:1;stroke-miterlimit:10;" d="M 150 145 L 250 145 L 250 165 L 150 165 Z M 150 145 " transform="matrix(1.25,0,0,1.25,126.25,-176.25)"/>
<path style=" stroke:none;fill-rule:nonzero;fill:rgb(12.941176%,30.980392%,51.764706%);fill-opacity:0.25098;" d="M 313.75 130 L 438.75 130 L 438.75 105 L 313.75 105 Z M 313.75 130 "/>
<path style="fill:none;stroke-width:1;stroke-linecap:round;stroke-linejoin:round;stroke:rgb(0%,0%,0%);stroke-opacity:1;stroke-miterlimit:10;" d="M 150 225 L 250 225 L 250 245 L 150 245 Z M 150 225 " transform="matrix(1.25,0,0,1.25,126.25,-176.25)"/>
<path style=" stroke:none;fill-rule:nonzero;fill:rgb(0%,0%,0%);fill-opacity:1;" d="M 276.855469 15 L 276.855469 8.789062 L 276.289062 8.789062 C 276.25 9.023438 276.171875 9.21875 276.054688 9.375 C 275.945312 9.53125 275.820312 9.65625 275.664062 9.746094 C 275.507812 9.824219 275.320312 9.882812 275.117188 9.921875 C 274.921875 9.953125 274.71875 9.960938 274.511719 9.960938 L 274.511719 10.546875 L 276.113281 10.546875 L 276.113281 15 Z M 276.855469 15 "/>
<path style=" stroke:none;fill-rule:nonzero;fill:rgb(0%,0%,0%);fill-opacity:1;" d="M 164.355469 15 L 164.355469 8.789062 L 163.789062 8.789062 C 163.75 9.023438 163.671875 9.21875 163.554688 9.375 C 163.445312 9.53125 163.320312 9.65625 163.164062 9.746094 C 163.007812 9.824219 162.820312 9.882812 162.617188 9.921875 C 162.421875 9.953125 162.21875 9.960938 162.011719 9.960938 L 162.011719 10.546875 L 163.613281 10.546875 L 163.613281 15 Z M 164.355469 15 "/>
<path style=" stroke:none;fill-rule:nonzero;fill:rgb(0%,0%,0%);fill-opacity:1;" d="M 164.355469 126.25 L 164.355469 120.039062 L 163.789062 120.039062 C 163.75 120.273438 163.671875 120.46875 163.554688 120.625 C 163.445312 120.78125 163.320312 120.90625 163.164062 120.996094 C 163.007812 121.074219 162.820312 121.132812 162.617188 121.171875 C 162.421875 121.203125 162.21875 121.210938 162.011719 121.210938 L 162.011719 121.796875 L 163.613281 121.796875 L 163.613281 126.25 Z M 164.355469 126.25 "/>
<path style=" stroke:none;fill-rule:nonzero;fill:rgb(0%,0%,0%);fill-opacity:1;" d="M 276.855469 126.25 L 276.855469 120.039062 L 276.289062 120.039062 C 276.25 120.273438 276.171875 120.46875 276.054688 120.625 C 275.945312 120.78125 275.820312 120.90625 275.664062 120.996094 C 275.507812 121.074219 275.320312 121.132812 275.117188 121.171875 C 274.921875 121.203125 274.71875 121.210938 274.511719 121.210938 L 274.511719 121.796875 L 276.113281 121.796875 L 276.113281 126.25 Z M 276.855469 126.25 "/>
<path style=" stroke:none;fill-rule:nonzero;fill:rgb(0%,0%,0%);fill-opacity:1;" d="M 274.140625 67.125 L 274.882812 67.125 C 274.867188 66.929688 274.882812 66.742188 274.921875 66.558594 C 274.96875 66.375 275.042969 66.214844 275.136719 66.070312 C 275.238281 65.925781 275.371094 65.808594 275.527344 65.71875 C 275.683594 65.628906 275.867188 65.582031 276.09375 65.582031 C 276.25 65.582031 276.398438 65.609375 276.542969 65.660156 C 276.699219 65.710938 276.828125 65.789062 276.933594 65.894531 C 277.035156 65.984375 277.117188 66.101562 277.1875 66.246094 C 277.25 66.375 277.285156 66.527344 277.285156 66.695312 C 277.285156 66.917969 277.25 67.113281 277.1875 67.28125 C 277.117188 67.4375 277.023438 67.585938 276.894531 67.730469 C 276.761719 67.859375 276.59375 67.996094 276.386719 68.140625 C 276.191406 68.285156 275.960938 68.433594 275.703125 68.589844 C 275.476562 68.71875 275.273438 68.855469 275.078125 69 C 274.882812 69.144531 274.707031 69.3125 274.550781 69.507812 C 274.394531 69.703125 274.261719 69.929688 274.160156 70.191406 C 274.054688 70.453125 273.988281 70.765625 273.964844 71.128906 L 278.007812 71.128906 L 278.007812 70.464844 L 274.824219 70.464844 C 274.863281 70.28125 274.929688 70.121094 275.039062 69.976562 C 275.15625 69.820312 275.292969 69.675781 275.449219 69.546875 C 275.617188 69.417969 275.789062 69.300781 275.976562 69.195312 C 276.171875 69.078125 276.367188 68.960938 276.5625 68.84375 C 276.757812 68.714844 276.945312 68.582031 277.128906 68.453125 C 277.308594 68.324219 277.464844 68.171875 277.597656 68.003906 C 277.738281 67.835938 277.851562 67.644531 277.929688 67.4375 C 278.015625 67.230469 278.066406 66.988281 278.066406 66.714844 C 278.066406 66.414062 278.011719 66.15625 277.910156 65.933594 C 277.816406 65.710938 277.679688 65.53125 277.5 65.386719 C 277.328125 65.230469 277.117188 65.113281 276.875 65.035156 C 276.640625 64.957031 276.390625 64.917969 276.132812 64.917969 C 275.804688 64.917969 275.511719 64.976562 275.253906 65.09375 C 274.992188 65.199219 274.773438 65.347656 274.609375 65.542969 C 274.4375 65.738281 274.304688 65.972656 274.21875 66.246094 C 274.140625 66.519531 274.109375 66.8125 274.140625 67.125 Z M 274.140625 67.125 "/>
<path style=" stroke:none;fill-rule:nonzero;fill:rgb(0%,0%,0%);fill-opacity:1;" d="M 161.640625 67.125 L 162.382812 67.125 C 162.367188 66.929688 162.382812 66.742188 162.421875 66.558594 C 162.46875 66.375 162.542969 66.214844 162.636719 66.070312 C 162.738281 65.925781 162.871094 65.808594 163.027344 65.71875 C 163.183594 65.628906 163.367188 65.582031 163.59375 65.582031 C 163.75 65.582031 163.898438 65.609375 164.042969 65.660156 C 164.199219 65.710938 164.328125 65.789062 164.433594 65.894531 C 164.535156 65.984375 164.617188 66.101562 164.6875 66.246094 C 164.75 66.375 164.785156 66.527344 164.785156 66.695312 C 164.785156 66.917969 164.75 67.113281 164.6875 67.28125 C 164.617188 67.4375 164.523438 67.585938 164.394531 67.730469 C 164.261719 67.859375 164.09375 67.996094 163.886719 68.140625 C 163.691406 68.285156 163.460938 68.433594 163.203125 68.589844 C 162.976562 68.71875 162.773438 68.855469 162.578125 69 C 162.382812 69.144531 162.207031 69.3125 162.050781 69.507812 C 161.894531 69.703125 161.761719 69.929688 161.660156 70.191406 C 161.554688 70.453125 161.488281 70.765625 161.464844 71.128906 L 165.507812 71.128906 L 165.507812 70.464844 L 162.324219 70.464844 C 162.363281 70.28125 162.429688 70.121094 162.539062 69.976562 C 162.65625 69.820312 162.792969 69.675781 162.949219 69.546875 C 163.117188 69.417969 163.289062 69.300781 163.476562 69.195312 C 163.671875 69.078125 163.867188 68.960938 164.0625 68.84375 C 164.257812 68.714844 164.445312 68.582031 164.628906 68.453125 C 164.808594 68.324219 164.964844 68.171875 165.097656 68.003906 C 165.238281 67.835938 165.351562 67.644531 165.429688 67.4375 C 165.515625 67.230469 165.566406 66.988281 165.566406 66.714844 C 165.566406 66.414062 165.511719 66.15625 165.410156 65.933594 C 165.316406 65.710938 165.179688 65.53125 165 65.386719 C 164.828125 65.230469 164.617188 65.113281 164.375 65.035156 C 164.140625 64.957031 163.890625 64.917969 163.632812 64.917969 C 163.304688 64.917969 163.011719 64.976562 162.753906 65.09375 C 162.492188 65.199219 162.273438 65.347656 162.109375 65.542969 C 161.9375 65.738281 161.804688 65.972656 161.71875 66.246094 C 161.640625 66.519531 161.609375 66.8125 161.640625 67.125 Z M 161.640625 67.125 "/>
<path style=" stroke:none;fill-rule:nonzero;fill:rgb(0%,0%,0%);fill-opacity:1;" d="M 216.707031 122.246094 L 217.449219 122.246094 C 217.4375 122.050781 217.449219 121.867188 217.488281 121.679688 C 217.539062 121.5 217.613281 121.335938 217.703125 121.191406 C 217.808594 121.050781 217.9375 120.933594 218.09375 120.839844 C 218.25 120.75 218.4375 120.703125 218.660156 120.703125 C 218.816406 120.703125 218.964844 120.734375 219.109375 120.78125 C 219.265625 120.835938 219.394531 120.914062 219.5 121.015625 C 219.605469 121.109375 219.6875 121.226562 219.753906 121.367188 C 219.820312 121.5 219.851562 121.648438 219.851562 121.816406 C 219.851562 122.039062 219.820312 122.234375 219.753906 122.402344 C 219.6875 122.558594 219.589844 122.710938 219.460938 122.851562 C 219.332031 122.984375 219.160156 123.121094 218.953125 123.261719 C 218.757812 123.40625 218.53125 123.554688 218.269531 123.710938 C 218.046875 123.84375 217.839844 123.980469 217.644531 124.121094 C 217.449219 124.265625 217.273438 124.433594 217.117188 124.628906 C 216.960938 124.824219 216.832031 125.054688 216.726562 125.3125 C 216.621094 125.578125 216.558594 125.890625 216.53125 126.25 L 220.574219 126.25 L 220.574219 125.585938 L 217.390625 125.585938 C 217.429688 125.40625 217.5 125.242188 217.605469 125.097656 C 217.722656 124.941406 217.859375 124.800781 218.015625 124.667969 C 218.183594 124.539062 218.359375 124.421875 218.542969 124.316406 C 218.738281 124.199219 218.933594 124.082031 219.128906 123.964844 C 219.324219 123.835938 219.511719 123.707031 219.695312 123.574219 C 219.878906 123.445312 220.035156 123.296875 220.164062 123.125 C 220.308594 122.960938 220.417969 122.769531 220.496094 122.558594 C 220.585938 122.351562 220.632812 122.109375 220.632812 121.835938 C 220.632812 121.539062 220.582031 121.28125 220.476562 121.054688 C 220.386719 120.835938 220.25 120.65625 220.066406 120.507812 C 219.898438 120.351562 219.6875 120.234375 219.441406 120.15625 C 219.207031 120.078125 218.960938 120.039062 218.699219 120.039062 C 218.375 120.039062 218.082031 120.097656 217.820312 120.214844 C 217.558594 120.320312 217.34375 120.46875 217.175781 120.664062 C 217.007812 120.859375 216.875 121.09375 216.785156 121.367188 C 216.707031 121.640625 216.679688 121.933594 216.707031 122.246094 Z M 216.707031 122.246094 "/>
<path style=" stroke:none;fill-rule:nonzero;fill:rgb(0%,0%,0%);fill-opacity:1;" d="M 216.707031 10.996094 L 217.449219 10.996094 C 217.4375 10.800781 217.449219 10.617188 217.488281 10.429688 C 217.539062 10.25 217.613281 10.085938 217.703125 9.941406 C 217.808594 9.800781 217.9375 9.683594 218.09375 9.589844 C 218.25 9.5 218.4375 9.453125 218.660156 9.453125 C 218.816406 9.453125 218.964844 9.484375 219.109375 9.53125 C 219.265625 9.585938 219.394531 9.664062 219.5 9.765625 C 219.605469 9.859375 219.6875 9.976562 219.753906 10.117188 C 219.820312 10.25 219.851562 10.398438 219.851562 10.566406 C 219.851562 10.789062 219.820312 10.984375 219.753906 11.152344 C 219.6875 11.308594 219.589844 11.460938 219.460938 11.601562 C 219.332031 11.734375 219.160156 11.871094 218.953125 12.011719 C 218.757812 12.15625 218.53125 12.304688 218.269531 12.460938 C 218.046875 12.59375 217.839844 12.730469 217.644531 12.871094 C 217.449219 13.015625 217.273438 13.183594 217.117188 13.378906 C 216.960938 13.574219 216.832031 13.804688 216.726562 14.0625 C 216.621094 14.328125 216.558594 14.640625 216.53125 15 L 220.574219 15 L 220.574219 14.335938 L 217.390625 14.335938 C 217.429688 14.15625 217.5 13.992188 217.605469 13.847656 C 217.722656 13.691406 217.859375 13.550781 218.015625 13.417969 C 218.183594 13.289062 218.359375 13.171875 218.542969 13.066406 C 218.738281 12.949219 218.933594 12.832031 219.128906 12.714844 C 219.324219 12.585938 219.511719 12.457031 219.695312 12.324219 C 219.878906 12.195312 220.035156 12.046875 220.164062 11.875 C 220.308594 11.710938 220.417969 11.519531 220.496094 11.308594 C 220.585938 11.101562 220.632812 10.859375 220.632812 10.585938 C 220.632812 10.289062 220.582031 10.03125 220.476562 9.804688 C 220.386719 9.585938 220.25 9.40625 220.066406 9.257812 C 219.898438 9.101562 219.6875 8.984375 219.441406 8.90625 C 219.207031 8.828125 218.960938 8.789062 218.699219 8.789062 C 218.375 8.789062 218.082031 8.847656 217.820312 8.964844 C 217.558594 9.070312 217.34375 9.21875 217.175781 9.414062 C 217.007812 9.609375 216.875 9.84375 216.785156 10.117188 C 216.707031 10.390625 216.679688 10.683594 216.707031 10.996094 Z M 216.707031 10.996094 "/>
<path style=" stroke:none;fill-rule:nonzero;fill:rgb(0%,0%,0%);fill-opacity:1;" d="M 219.285156 69.019531 L 217.195312 69.019531 L 219.265625 65.992188 L 219.285156 65.992188 Z M 219.988281 69.019531 L 219.988281 64.917969 L 219.382812 64.917969 L 216.570312 68.960938 L 216.570312 69.683594 L 219.285156 69.683594 L 219.285156 71.128906 L 219.988281 71.128906 L 219.988281 69.683594 L 220.828125 69.683594 L 220.828125 69.019531 Z M 219.988281 69.019531 "/>
<path style=" stroke:none;fill-rule:nonzero;fill:rgb(0%,0%,0%);fill-opacity:1;" d="M 433.105469 15 L 433.105469 8.789062 L 432.539062 8.789062 C 432.5 9.023438 432.421875 9.21875 432.304688 9.375 C 432.195312 9.53125 432.070312 9.65625 431.914062 9.746094 C 431.757812 9.824219 431.570312 9.882812 431.367188 9.921875 C 431.171875 9.953125 430.96875 9.960938 430.761719 9.960938 L 430.761719 10.546875 L 432.363281 10.546875 L 432.363281 15 Z M 433.105469 15 "/>
<path style=" stroke:none;fill-rule:nonzero;fill:rgb(0%,0%,0%);fill-opacity:1;" d="M 320.605469 15 L 320.605469 8.789062 L 320.039062 8.789062 C 320 9.023438 319.921875 9.21875 319.804688 9.375 C 319.695312 9.53125 319.570312 9.65625 319.414062 9.746094 C 319.257812 9.824219 319.070312 9.882812 318.867188 9.921875 C 318.671875 9.953125 318.46875 9.960938 318.261719 9.960938 L 318.261719 10.546875 L 319.863281 10.546875 L 319.863281 15 Z M 320.605469 15 "/>
<path style=" stroke:none;fill-rule:nonzero;fill:rgb(0%,0%,0%);fill-opacity:1;" d="M 320.605469 126.25 L 320.605469 120.039062 L 320.039062 120.039062 C 320 120.273438 319.921875 120.46875 319.804688 120.625 C 319.695312 120.78125 319.570312 120.90625 319.414062 120.996094 C 319.257812 121.074219 319.070312 121.132812 318.867188 121.171875 C 318.671875 121.203125 318.46875 121.210938 318.261719 121.210938 L 318.261719 121.796875 L 319.863281 121.796875 L 319.863281 126.25 Z M 320.605469 126.25 "/>
<path style=" stroke:none;fill-rule:nonzero;fill:rgb(0%,0%,0%);fill-opacity:1;" d="M 433.105469 126.25 L 433.105469 120.039062 L 432.539062 120.039062 C 432.5 120.273438 432.421875 120.46875 432.304688 120.625 C 432.195312 120.78125 432.070312 120.90625 431.914062 120.996094 C 431.757812 121.074219 431.570312 121.132812 431.367188 121.171875 C 431.171875 121.203125 430.96875 121.210938 430.761719 121.210938 L 430.761719 121.796875 L 432.363281 121.796875 L 432.363281 126.25 Z M 433.105469 126.25 "/>
<path style=" stroke:none;fill-rule:nonzero;fill:rgb(0%,0%,0%);fill-opacity:1;" d="M 431.914062 67.59375 L 431.914062 68.21875 C 432.039062 68.191406 432.191406 68.179688 432.363281 68.179688 C 432.542969 68.179688 432.714844 68.207031 432.871094 68.257812 C 433.027344 68.308594 433.164062 68.386719 433.28125 68.492188 C 433.398438 68.597656 433.484375 68.726562 433.554688 68.882812 C 433.632812 69.027344 433.671875 69.1875 433.671875 69.371094 C 433.671875 69.566406 433.632812 69.742188 433.554688 69.898438 C 433.484375 70.042969 433.390625 70.164062 433.261719 70.269531 C 433.144531 70.359375 433 70.4375 432.832031 70.503906 C 432.675781 70.554688 432.503906 70.582031 432.324219 70.582031 C 431.894531 70.582031 431.566406 70.457031 431.347656 70.210938 C 431.125 69.949219 431.015625 69.617188 431.015625 69.214844 L 430.253906 69.214844 C 430.253906 69.539062 430.296875 69.828125 430.390625 70.074219 C 430.492188 70.320312 430.632812 70.53125 430.820312 70.699219 C 431 70.867188 431.214844 71 431.464844 71.089844 C 431.722656 71.175781 432.011719 71.226562 432.324219 71.226562 C 432.621094 71.226562 432.894531 71.1875 433.144531 71.109375 C 433.402344 71.03125 433.632812 70.914062 433.828125 70.757812 C 434.023438 70.601562 434.171875 70.40625 434.277344 70.171875 C 434.394531 69.925781 434.453125 69.652344 434.453125 69.351562 C 434.453125 68.972656 434.359375 68.648438 434.179688 68.375 C 433.992188 68.101562 433.714844 67.925781 433.339844 67.847656 L 433.339844 67.828125 C 433.585938 67.710938 433.789062 67.546875 433.945312 67.339844 C 434.109375 67.117188 434.199219 66.863281 434.199219 66.578125 C 434.199219 66.304688 434.144531 66.0625 434.042969 65.855469 C 433.949219 65.632812 433.820312 65.457031 433.652344 65.328125 C 433.480469 65.199219 433.28125 65.101562 433.046875 65.035156 C 432.820312 64.957031 432.578125 64.917969 432.304688 64.917969 C 432 64.917969 431.726562 64.96875 431.484375 65.074219 C 431.25 65.179688 431.054688 65.316406 430.898438 65.484375 C 430.742188 65.652344 430.617188 65.863281 430.527344 66.109375 C 430.449219 66.355469 430.398438 66.628906 430.390625 66.929688 L 431.132812 66.929688 C 431.132812 66.746094 431.152344 66.578125 431.191406 66.421875 C 431.242188 66.253906 431.3125 66.109375 431.40625 65.992188 C 431.507812 65.863281 431.632812 65.765625 431.777344 65.699219 C 431.933594 65.621094 432.109375 65.582031 432.304688 65.582031 C 432.617188 65.582031 432.875 65.667969 433.085938 65.835938 C 433.304688 66.003906 433.417969 66.253906 433.417969 66.578125 C 433.417969 66.746094 433.382812 66.898438 433.320312 67.027344 C 433.25 67.144531 433.164062 67.25 433.046875 67.339844 C 432.9375 67.417969 432.816406 67.484375 432.675781 67.535156 C 432.53125 67.574219 432.382812 67.59375 432.226562 67.59375 L 432.070312 67.59375 C 432.039062 67.59375 432.015625 67.59375 431.992188 67.59375 C 431.960938 67.59375 431.9375 67.59375 431.914062 67.59375 Z M 431.914062 67.59375 "/>
<path style=" stroke:none;fill-rule:nonzero;fill:rgb(0%,0%,0%);fill-opacity:1;" d="M 319.414062 67.59375 L 319.414062 68.21875 C 319.539062 68.191406 319.691406 68.179688 319.863281 68.179688 C 320.042969 68.179688 320.214844 68.207031 320.371094 68.257812 C 320.527344 68.308594 320.664062 68.386719 320.78125 68.492188 C 320.898438 68.597656 320.984375 68.726562 321.054688 68.882812 C 321.132812 69.027344 321.171875 69.1875 321.171875 69.371094 C 321.171875 69.566406 321.132812 69.742188 321.054688 69.898438 C 320.984375 70.042969 320.890625 70.164062 320.761719 70.269531 C 320.644531 70.359375 320.5 70.4375 320.332031 70.503906 C 320.175781 70.554688 320.003906 70.582031 319.824219 70.582031 C 319.394531 70.582031 319.066406 70.457031 318.847656 70.210938 C 318.625 69.949219 318.515625 69.617188 318.515625 69.214844 L 317.753906 69.214844 C 317.753906 69.539062 317.796875 69.828125 317.890625 70.074219 C 317.992188 70.320312 318.132812 70.53125 318.320312 70.699219 C 318.5 70.867188 318.714844 71 318.964844 71.089844 C 319.222656 71.175781 319.511719 71.226562 319.824219 71.226562 C 320.121094 71.226562 320.394531 71.1875 320.644531 71.109375 C 320.902344 71.03125 321.132812 70.914062 321.328125 70.757812 C 321.523438 70.601562 321.671875 70.40625 321.777344 70.171875 C 321.894531 69.925781 321.953125 69.652344 321.953125 69.351562 C 321.953125 68.972656 321.859375 68.648438 321.679688 68.375 C 321.492188 68.101562 321.214844 67.925781 320.839844 67.847656 L 320.839844 67.828125 C 321.085938 67.710938 321.289062 67.546875 321.445312 67.339844 C 321.609375 67.117188 321.699219 66.863281 321.699219 66.578125 C 321.699219 66.304688 321.644531 66.0625 321.542969 65.855469 C 321.449219 65.632812 321.320312 65.457031 321.152344 65.328125 C 320.980469 65.199219 320.78125 65.101562 320.546875 65.035156 C 320.320312 64.957031 320.078125 64.917969 319.804688 64.917969 C 319.5 64.917969 319.226562 64.96875 318.984375 65.074219 C 318.75 65.179688 318.554688 65.316406 318.398438 65.484375 C 318.242188 65.652344 318.117188 65.863281 318.027344 66.109375 C 317.949219 66.355469 317.898438 66.628906 317.890625 66.929688 L 318.632812 66.929688 C 318.632812 66.746094 318.652344 66.578125 318.691406 66.421875 C 318.742188 66.253906 318.8125 66.109375 318.90625 65.992188 C 319.007812 65.863281 319.132812 65.765625 319.277344 65.699219 C 319.433594 65.621094 319.609375 65.582031 319.804688 65.582031 C 320.117188 65.582031 320.375 65.667969 320.585938 65.835938 C 320.804688 66.003906 320.917969 66.253906 320.917969 66.578125 C 320.917969 66.746094 320.882812 66.898438 320.820312 67.027344 C 320.75 67.144531 320.664062 67.25 320.546875 67.339844 C 320.4375 67.417969 320.316406 67.484375 320.175781 67.535156 C 320.03125 67.574219 319.882812 67.59375 319.726562 67.59375 L 319.570312 67.59375 C 319.539062 67.59375 319.515625 67.59375 319.492188 67.59375 C 319.460938 67.59375 319.4375 67.59375 319.414062 67.59375 Z M 319.414062 67.59375 "/>
<path style=" stroke:none;fill-rule:nonzero;fill:rgb(0%,0%,0%);fill-opacity:1;" d="M 374.480469 122.714844 L 374.480469 123.339844 C 374.609375 123.316406 374.761719 123.300781 374.929688 123.300781 C 375.113281 123.300781 375.28125 123.328125 375.4375 123.378906 C 375.59375 123.433594 375.730469 123.511719 375.847656 123.613281 C 375.964844 123.71875 376.054688 123.847656 376.121094 124.003906 C 376.199219 124.148438 376.238281 124.3125 376.238281 124.492188 C 376.238281 124.6875 376.199219 124.863281 376.121094 125.019531 C 376.054688 125.164062 375.957031 125.289062 375.828125 125.390625 C 375.710938 125.484375 375.566406 125.5625 375.398438 125.625 C 375.242188 125.679688 375.074219 125.703125 374.890625 125.703125 C 374.460938 125.703125 374.136719 125.582031 373.914062 125.332031 C 373.691406 125.074219 373.582031 124.742188 373.582031 124.335938 L 372.820312 124.335938 C 372.820312 124.664062 372.867188 124.953125 372.957031 125.195312 C 373.0625 125.445312 373.203125 125.65625 373.386719 125.820312 C 373.570312 125.992188 373.785156 126.125 374.03125 126.210938 C 374.292969 126.296875 374.578125 126.347656 374.890625 126.347656 C 375.191406 126.347656 375.464844 126.308594 375.710938 126.230469 C 375.972656 126.152344 376.199219 126.035156 376.394531 125.878906 C 376.589844 125.722656 376.738281 125.527344 376.84375 125.292969 C 376.960938 125.046875 377.019531 124.773438 377.019531 124.472656 C 377.019531 124.097656 376.929688 123.769531 376.746094 123.496094 C 376.5625 123.222656 376.285156 123.046875 375.90625 122.96875 L 375.90625 122.949219 C 376.152344 122.832031 376.355469 122.671875 376.511719 122.460938 C 376.679688 122.242188 376.765625 121.988281 376.765625 121.699219 C 376.765625 121.425781 376.714844 121.1875 376.609375 120.976562 C 376.519531 120.757812 376.386719 120.582031 376.21875 120.449219 C 376.050781 120.320312 375.847656 120.226562 375.613281 120.15625 C 375.390625 120.078125 375.144531 120.039062 374.871094 120.039062 C 374.570312 120.039062 374.296875 120.09375 374.050781 120.195312 C 373.816406 120.304688 373.621094 120.4375 373.464844 120.605469 C 373.308594 120.777344 373.183594 120.984375 373.09375 121.230469 C 373.015625 121.480469 372.96875 121.753906 372.957031 122.050781 L 373.699219 122.050781 C 373.699219 121.871094 373.71875 121.699219 373.757812 121.542969 C 373.808594 121.375 373.882812 121.230469 373.972656 121.113281 C 374.078125 120.984375 374.199219 120.890625 374.34375 120.820312 C 374.5 120.742188 374.675781 120.703125 374.871094 120.703125 C 375.183594 120.703125 375.445312 120.789062 375.652344 120.957031 C 375.875 121.128906 375.984375 121.375 375.984375 121.699219 C 375.984375 121.871094 375.953125 122.023438 375.886719 122.148438 C 375.820312 122.265625 375.730469 122.375 375.613281 122.460938 C 375.507812 122.539062 375.386719 122.609375 375.242188 122.65625 C 375.097656 122.695312 374.949219 122.714844 374.792969 122.714844 L 374.636719 122.714844 C 374.609375 122.714844 374.585938 122.714844 374.558594 122.714844 C 374.53125 122.714844 374.507812 122.714844 374.480469 122.714844 Z M 374.480469 122.714844 "/>
<path style=" stroke:none;fill-rule:nonzero;fill:rgb(0%,0%,0%);fill-opacity:1;" d="M 374.480469 11.464844 L 374.480469 12.089844 C 374.609375 12.066406 374.761719 12.050781 374.929688 12.050781 C 375.113281 12.050781 375.28125 12.078125 375.4375 12.128906 C 375.59375 12.183594 375.730469 12.261719 375.847656 12.363281 C 375.964844 12.46875 376.054688 12.597656 376.121094 12.753906 C 376.199219 12.898438 376.238281 13.0625 376.238281 13.242188 C 376.238281 13.4375 376.199219 13.613281 376.121094 13.769531 C 376.054688 13.914062 375.957031 14.039062 375.828125 14.140625 C 375.710938 14.234375 375.566406 14.3125 375.398438 14.375 C 375.242188 14.429688 375.074219 14.453125 374.890625 14.453125 C 374.460938 14.453125 374.136719 14.332031 373.914062 14.082031 C 373.691406 13.824219 373.582031 13.492188 373.582031 13.085938 L 372.820312 13.085938 C 372.820312 13.414062 372.867188 13.703125 372.957031 13.945312 C 373.0625 14.195312 373.203125 14.40625 373.386719 14.570312 C 373.570312 14.742188 373.785156 14.875 374.03125 14.960938 C 374.292969 15.046875 374.578125 15.097656 374.890625 15.097656 C 375.191406 15.097656 375.464844 15.058594 375.710938 14.980469 C 375.972656 14.902344 376.199219 14.785156 376.394531 14.628906 C 376.589844 14.472656 376.738281 14.277344 376.84375 14.042969 C 376.960938 13.796875 377.019531 13.523438 377.019531 13.222656 C 377.019531 12.847656 376.929688 12.519531 376.746094 12.246094 C 376.5625 11.972656 376.285156 11.796875 375.90625 11.71875 L 375.90625 11.699219 C 376.152344 11.582031 376.355469 11.421875 376.511719 11.210938 C 376.679688 10.992188 376.765625 10.738281 376.765625 10.449219 C 376.765625 10.175781 376.714844 9.9375 376.609375 9.726562 C 376.519531 9.507812 376.386719 9.332031 376.21875 9.199219 C 376.050781 9.070312 375.847656 8.976562 375.613281 8.90625 C 375.390625 8.828125 375.144531 8.789062 374.871094 8.789062 C 374.570312 8.789062 374.296875 8.84375 374.050781 8.945312 C 373.816406 9.054688 373.621094 9.1875 373.464844 9.355469 C 373.308594 9.527344 373.183594 9.734375 373.09375 9.980469 C 373.015625 10.230469 372.96875 10.503906 372.957031 10.800781 L 373.699219 10.800781 C 373.699219 10.621094 373.71875 10.449219 373.757812 10.292969 C 373.808594 10.125 373.882812 9.980469 373.972656 9.863281 C 374.078125 9.734375 374.199219 9.640625 374.34375 9.570312 C 374.5 9.492188 374.675781 9.453125 374.871094 9.453125 C 375.183594 9.453125 375.445312 9.539062 375.652344 9.707031 C 375.875 9.878906 375.984375 10.125 375.984375 10.449219 C 375.984375 10.621094 375.953125 10.773438 375.886719 10.898438 C 375.820312 11.015625 375.730469 11.125 375.613281 11.210938 C 375.507812 11.289062 375.386719 11.359375 375.242188 11.40625 C 375.097656 11.445312 374.949219 11.464844 374.792969 11.464844 L 374.636719 11.464844 C 374.609375 11.464844 374.585938 11.464844 374.558594 11.464844 C 374.53125 11.464844 374.507812 11.464844 374.480469 11.464844 Z M 374.480469 11.464844 "/>
<path style=" stroke:none;fill-rule:nonzero;fill:rgb(0%,0%,0%);fill-opacity:1;" d="M 373.738281 69.625 L 372.996094 69.625 C 373.046875 70.171875 373.242188 70.574219 373.582031 70.835938 C 373.921875 71.097656 374.351562 71.226562 374.871094 71.226562 C 375.625 71.226562 376.171875 70.941406 376.511719 70.367188 C 376.851562 69.792969 377.019531 68.96875 377.019531 67.886719 C 377.019531 67.300781 376.960938 66.820312 376.84375 66.441406 C 376.738281 66.050781 376.589844 65.746094 376.394531 65.523438 C 376.199219 65.300781 375.972656 65.144531 375.710938 65.054688 C 375.464844 64.964844 375.195312 64.917969 374.910156 64.917969 C 374.609375 64.917969 374.332031 64.96875 374.070312 65.074219 C 373.824219 65.179688 373.609375 65.320312 373.425781 65.503906 C 373.242188 65.671875 373.101562 65.882812 372.996094 66.128906 C 372.90625 66.375 372.859375 66.648438 372.859375 66.949219 C 372.859375 67.25 372.898438 67.527344 372.976562 67.789062 C 373.066406 68.050781 373.199219 68.269531 373.367188 68.453125 C 373.535156 68.621094 373.738281 68.757812 373.972656 68.863281 C 374.21875 68.96875 374.507812 69.019531 374.832031 69.019531 C 375.132812 69.019531 375.40625 68.941406 375.652344 68.785156 C 375.914062 68.628906 376.113281 68.421875 376.257812 68.160156 L 376.277344 68.179688 C 376.25 68.988281 376.121094 69.59375 375.886719 69.996094 C 375.664062 70.386719 375.328125 70.582031 374.871094 70.582031 C 374.570312 70.582031 374.3125 70.503906 374.089844 70.347656 C 373.882812 70.179688 373.765625 69.9375 373.738281 69.625 Z M 376.140625 67.007812 C 376.140625 67.175781 376.109375 67.347656 376.042969 67.515625 C 375.992188 67.683594 375.90625 67.835938 375.789062 67.964844 C 375.683594 68.082031 375.554688 68.179688 375.398438 68.257812 C 375.242188 68.324219 375.066406 68.355469 374.871094 68.355469 C 374.6875 68.355469 374.527344 68.324219 374.382812 68.257812 C 374.238281 68.179688 374.109375 68.082031 373.992188 67.964844 C 373.886719 67.835938 373.804688 67.691406 373.738281 67.535156 C 373.6875 67.378906 373.660156 67.214844 373.660156 67.046875 C 373.660156 66.851562 373.679688 66.667969 373.71875 66.5 C 373.757812 66.332031 373.824219 66.179688 373.914062 66.050781 C 374.019531 65.90625 374.148438 65.796875 374.304688 65.71875 C 374.460938 65.628906 374.648438 65.582031 374.871094 65.582031 C 375.078125 65.582031 375.261719 65.621094 375.417969 65.699219 C 375.574219 65.777344 375.703125 65.882812 375.808594 66.011719 C 375.925781 66.140625 376.011719 66.292969 376.0625 66.460938 C 376.113281 66.628906 376.140625 66.8125 376.140625 67.007812 Z M 376.140625 67.007812 "/>
<path style=" stroke:none;fill-rule:nonzero;fill:rgb(0%,0%,0%);fill-opacity:1;" d="M 330.390625 10.996094 L 331.132812 10.996094 C 331.117188 10.800781 331.132812 10.617188 331.171875 10.429688 C 331.21875 10.25 331.292969 10.085938 331.386719 9.941406 C 331.488281 9.800781 331.621094 9.683594 331.777344 9.589844 C 331.933594 9.5 332.117188 9.453125 332.34375 9.453125 C 332.5 9.453125 332.648438 9.484375 332.792969 9.53125 C 332.949219 9.585938 333.078125 9.664062 333.183594 9.765625 C 333.285156 9.859375 333.367188 9.976562 333.4375 10.117188 C 333.5 10.25 333.535156 10.398438 333.535156 10.566406 C 333.535156 10.789062 333.5 10.984375 333.4375 11.152344 C 333.367188 11.308594 333.273438 11.460938 333.144531 11.601562 C 333.011719 11.734375 332.84375 11.871094 332.636719 12.011719 C 332.441406 12.15625 332.210938 12.304688 331.953125 12.460938 C 331.726562 12.59375 331.523438 12.730469 331.328125 12.871094 C 331.132812 13.015625 330.957031 13.183594 330.800781 13.378906 C 330.644531 13.574219 330.511719 13.804688 330.410156 14.0625 C 330.304688 14.328125 330.238281 14.640625 330.214844 15 L 334.257812 15 L 334.257812 14.335938 L 331.074219 14.335938 C 331.113281 14.15625 331.179688 13.992188 331.289062 13.847656 C 331.40625 13.691406 331.542969 13.550781 331.699219 13.417969 C 331.867188 13.289062 332.039062 13.171875 332.226562 13.066406 C 332.421875 12.949219 332.617188 12.832031 332.8125 12.714844 C 333.007812 12.585938 333.195312 12.457031 333.378906 12.324219 C 333.558594 12.195312 333.714844 12.046875 333.847656 11.875 C 333.988281 11.710938 334.101562 11.519531 334.179688 11.308594 C 334.265625 11.101562 334.316406 10.859375 334.316406 10.585938 C 334.316406 10.289062 334.261719 10.03125 334.160156 9.804688 C 334.066406 9.585938 333.929688 9.40625 333.75 9.257812 C 333.578125 9.101562 333.367188 8.984375 333.125 8.90625 C 332.890625 8.828125 332.640625 8.789062 332.382812 8.789062 C 332.054688 8.789062 331.761719 8.847656 331.503906 8.964844 C 331.242188 9.070312 331.023438 9.21875 330.859375 9.414062 C 330.6875 9.609375 330.554688 9.84375 330.46875 10.117188 C 330.390625 10.390625 330.359375 10.683594 330.390625 10.996094 Z M 330.390625 10.996094 "/>
<path style=" stroke:none;fill-rule:nonzero;fill:rgb(0%,0%,0%);fill-opacity:1;" d="M 317.890625 23.496094 L 318.632812 23.496094 C 318.617188 23.300781 318.632812 23.117188 318.671875 22.929688 C 318.71875 22.75 318.792969 22.585938 318.886719 22.441406 C 318.988281 22.300781 319.121094 22.183594 319.277344 22.089844 C 319.433594 22 319.617188 21.953125 319.84375 21.953125 C 320 21.953125 320.148438 21.984375 320.292969 22.03125 C 320.449219 22.085938 320.578125 22.164062 320.683594 22.265625 C 320.785156 22.359375 320.867188 22.476562 320.9375 22.617188 C 321 22.75 321.035156 22.898438 321.035156 23.066406 C 321.035156 23.289062 321 23.484375 320.9375 23.652344 C 320.867188 23.808594 320.773438 23.960938 320.644531 24.101562 C 320.511719 24.234375 320.34375 24.371094 320.136719 24.511719 C 319.941406 24.65625 319.710938 24.804688 319.453125 24.960938 C 319.226562 25.09375 319.023438 25.230469 318.828125 25.371094 C 318.632812 25.515625 318.457031 25.683594 318.300781 25.878906 C 318.144531 26.074219 318.011719 26.304688 317.910156 26.5625 C 317.804688 26.828125 317.738281 27.140625 317.714844 27.5 L 321.757812 27.5 L 321.757812 26.835938 L 318.574219 26.835938 C 318.613281 26.65625 318.679688 26.492188 318.789062 26.347656 C 318.90625 26.191406 319.042969 26.050781 319.199219 25.917969 C 319.367188 25.789062 319.539062 25.671875 319.726562 25.566406 C 319.921875 25.449219 320.117188 25.332031 320.3125 25.214844 C 320.507812 25.085938 320.695312 24.957031 320.878906 24.824219 C 321.058594 24.695312 321.214844 24.546875 321.347656 24.375 C 321.488281 24.210938 321.601562 24.019531 321.679688 23.808594 C 321.765625 23.601562 321.816406 23.359375 321.816406 23.085938 C 321.816406 22.789062 321.761719 22.53125 321.660156 22.304688 C 321.566406 22.085938 321.429688 21.90625 321.25 21.757812 C 321.078125 21.601562 320.867188 21.484375 320.625 21.40625 C 320.390625 21.328125 320.140625 21.289062 319.882812 21.289062 C 319.554688 21.289062 319.261719 21.347656 319.003906 21.464844 C 318.742188 21.570312 318.523438 21.71875 318.359375 21.914062 C 318.1875 22.109375 318.054688 22.34375 317.96875 22.617188 C 317.890625 22.890625 317.859375 23.183594 317.890625 23.496094 Z M 317.890625 23.496094 "/>
<path style=" stroke:none;fill-rule:nonzero;fill:rgb(0%,0%,0%);fill-opacity:1;" d="M 332.96875 25.390625 L 330.878906 25.390625 L 332.949219 22.363281 L 332.96875 22.363281 Z M 333.671875 25.390625 L 333.671875 21.289062 L 333.066406 21.289062 L 330.253906 25.332031 L 330.253906 26.054688 L 332.96875 26.054688 L 332.96875 27.5 L 333.671875 27.5 L 333.671875 26.054688 L 334.511719 26.054688 L 334.511719 25.390625 Z M 333.671875 25.390625 "/>
<path style=" stroke:none;fill-rule:nonzero;fill:rgb(0%,0%,0%);fill-opacity:1;" d="M 317.890625 109.746094 L 318.632812 109.746094 C 318.617188 109.550781 318.632812 109.367188 318.671875 109.179688 C 318.71875 109 318.792969 108.835938 318.886719 108.691406 C 318.988281 108.550781 319.121094 108.433594 319.277344 108.339844 C 319.433594 108.25 319.617188 108.203125 319.84375 108.203125 C 320 108.203125 320.148438 108.234375 320.292969 108.28125 C 320.449219 108.335938 320.578125 108.414062 320.683594 108.515625 C 320.785156 108.609375 320.867188 108.726562 320.9375 108.867188 C 321 109 321.035156 109.148438 321.035156 109.316406 C 321.035156 109.539062 321 109.734375 320.9375 109.902344 C 320.867188 110.058594 320.773438 110.210938 320.644531 110.351562 C 320.511719 110.484375 320.34375 110.621094 320.136719 110.761719 C 319.941406 110.90625 319.710938 111.054688 319.453125 111.210938 C 319.226562 111.34375 319.023438 111.480469 318.828125 111.621094 C 318.632812 111.765625 318.457031 111.933594 318.300781 112.128906 C 318.144531 112.324219 318.011719 112.554688 317.910156 112.8125 C 317.804688 113.078125 317.738281 113.390625 317.714844 113.75 L 321.757812 113.75 L 321.757812 113.085938 L 318.574219 113.085938 C 318.613281 112.90625 318.679688 112.742188 318.789062 112.597656 C 318.90625 112.441406 319.042969 112.300781 319.199219 112.167969 C 319.367188 112.039062 319.539062 111.921875 319.726562 111.816406 C 319.921875 111.699219 320.117188 111.582031 320.3125 111.464844 C 320.507812 111.335938 320.695312 111.207031 320.878906 111.074219 C 321.058594 110.945312 321.214844 110.796875 321.347656 110.625 C 321.488281 110.460938 321.601562 110.269531 321.679688 110.058594 C 321.765625 109.851562 321.816406 109.609375 321.816406 109.335938 C 321.816406 109.039062 321.761719 108.78125 321.660156 108.554688 C 321.566406 108.335938 321.429688 108.15625 321.25 108.007812 C 321.078125 107.851562 320.867188 107.734375 320.625 107.65625 C 320.390625 107.578125 320.140625 107.539062 319.882812 107.539062 C 319.554688 107.539062 319.261719 107.597656 319.003906 107.714844 C 318.742188 107.820312 318.523438 107.96875 318.359375 108.164062 C 318.1875 108.359375 318.054688 108.59375 317.96875 108.867188 C 317.890625 109.140625 317.859375 109.433594 317.890625 109.746094 Z M 317.890625 109.746094 "/>
<path style=" stroke:none;fill-rule:nonzero;fill:rgb(0%,0%,0%);fill-opacity:1;" d="M 332.96875 111.640625 L 330.878906 111.640625 L 332.949219 108.613281 L 332.96875 108.613281 Z M 333.671875 111.640625 L 333.671875 107.539062 L 333.066406 107.539062 L 330.253906 111.582031 L 330.253906 112.304688 L 332.96875 112.304688 L 332.96875 113.75 L 333.671875 113.75 L 333.671875 112.304688 L 334.511719 112.304688 L 334.511719 111.640625 Z M 333.671875 111.640625 "/>
<path style=" stroke:none;fill-rule:nonzero;fill:rgb(0%,0%,0%);fill-opacity:1;" d="M 330.390625 122.246094 L 331.132812 122.246094 C 331.117188 122.050781 331.132812 121.867188 331.171875 121.679688 C 331.21875 121.5 331.292969 121.335938 331.386719 121.191406 C 331.488281 121.050781 331.621094 120.933594 331.777344 120.839844 C 331.933594 120.75 332.117188 120.703125 332.34375 120.703125 C 332.5 120.703125 332.648438 120.734375 332.792969 120.78125 C 332.949219 120.835938 333.078125 120.914062 333.183594 121.015625 C 333.285156 121.109375 333.367188 121.226562 333.4375 121.367188 C 333.5 121.5 333.535156 121.648438 333.535156 121.816406 C 333.535156 122.039062 333.5 122.234375 333.4375 122.402344 C 333.367188 122.558594 333.273438 122.710938 333.144531 122.851562 C 333.011719 122.984375 332.84375 123.121094 332.636719 123.261719 C 332.441406 123.40625 332.210938 123.554688 331.953125 123.710938 C 331.726562 123.84375 331.523438 123.980469 331.328125 124.121094 C 331.132812 124.265625 330.957031 124.433594 330.800781 124.628906 C 330.644531 124.824219 330.511719 125.054688 330.410156 125.3125 C 330.304688 125.578125 330.238281 125.890625 330.214844 126.25 L 334.257812 126.25 L 334.257812 125.585938 L 331.074219 125.585938 C 331.113281 125.40625 331.179688 125.242188 331.289062 125.097656 C 331.40625 124.941406 331.542969 124.800781 331.699219 124.667969 C 331.867188 124.539062 332.039062 124.421875 332.226562 124.316406 C 332.421875 124.199219 332.617188 124.082031 332.8125 123.964844 C 333.007812 123.835938 333.195312 123.707031 333.378906 123.574219 C 333.558594 123.445312 333.714844 123.296875 333.847656 123.125 C 333.988281 122.960938 334.101562 122.769531 334.179688 122.558594 C 334.265625 122.351562 334.316406 122.109375 334.316406 121.835938 C 334.316406 121.539062 334.261719 121.28125 334.160156 121.054688 C 334.066406 120.835938 333.929688 120.65625 333.75 120.507812 C 333.578125 120.351562 333.367188 120.234375 333.125 120.15625 C 332.890625 120.078125 332.640625 120.039062 332.382812 120.039062 C 332.054688 120.039062 331.761719 120.097656 331.503906 120.214844 C 331.242188 120.320312 331.023438 120.46875 330.859375 120.664062 C 330.6875 120.859375 330.554688 121.09375 330.46875 121.367188 C 330.390625 121.640625 330.359375 121.933594 330.390625 122.246094 Z M 330.390625 122.246094 "/>
<path style=" stroke:none;fill-rule:nonzero;fill:rgb(0%,0%,0%);fill-opacity:1;" d="M 417.890625 122.246094 L 418.632812 122.246094 C 418.617188 122.050781 418.632812 121.867188 418.671875 121.679688 C 418.71875 121.5 418.792969 121.335938 418.886719 121.191406 C 418.988281 121.050781 419.121094 120.933594 419.277344 120.839844 C 419.433594 120.75 419.617188 120.703125 419.84375 120.703125 C 420 120.703125 420.148438 120.734375 420.292969 120.78125 C 420.449219 120.835938 420.578125 120.914062 420.683594 121.015625 C 420.785156 121.109375 420.867188 121.226562 420.9375 121.367188 C 421 121.5 421.035156 121.648438 421.035156 121.816406 C 421.035156 122.039062 421 122.234375 420.9375 122.402344 C 420.867188 122.558594 420.773438 122.710938 420.644531 122.851562 C 420.511719 122.984375 420.34375 123.121094 420.136719 123.261719 C 419.941406 123.40625 419.710938 123.554688 419.453125 123.710938 C 419.226562 123.84375 419.023438 123.980469 418.828125 124.121094 C 418.632812 124.265625 418.457031 124.433594 418.300781 124.628906 C 418.144531 124.824219 418.011719 125.054688 417.910156 125.3125 C 417.804688 125.578125 417.738281 125.890625 417.714844 126.25 L 421.757812 126.25 L 421.757812 125.585938 L 418.574219 125.585938 C 418.613281 125.40625 418.679688 125.242188 418.789062 125.097656 C 418.90625 124.941406 419.042969 124.800781 419.199219 124.667969 C 419.367188 124.539062 419.539062 124.421875 419.726562 124.316406 C 419.921875 124.199219 420.117188 124.082031 420.3125 123.964844 C 420.507812 123.835938 420.695312 123.707031 420.878906 123.574219 C 421.058594 123.445312 421.214844 123.296875 421.347656 123.125 C 421.488281 122.960938 421.601562 122.769531 421.679688 122.558594 C 421.765625 122.351562 421.816406 122.109375 421.816406 121.835938 C 421.816406 121.539062 421.761719 121.28125 421.660156 121.054688 C 421.566406 120.835938 421.429688 120.65625 421.25 120.507812 C 421.078125 120.351562 420.867188 120.234375 420.625 120.15625 C 420.390625 120.078125 420.140625 120.039062 419.882812 120.039062 C 419.554688 120.039062 419.261719 120.097656 419.003906 120.214844 C 418.742188 120.320312 418.523438 120.46875 418.359375 120.664062 C 418.1875 120.859375 418.054688 121.09375 417.96875 121.367188 C 417.890625 121.640625 417.859375 121.933594 417.890625 122.246094 Z M 417.890625 122.246094 "/>
<path style=" stroke:none;fill-rule:nonzero;fill:rgb(0%,0%,0%);fill-opacity:1;" d="M 417.890625 10.996094 L 418.632812 10.996094 C 418.617188 10.800781 418.632812 10.617188 418.671875 10.429688 C 418.71875 10.25 418.792969 10.085938 418.886719 9.941406 C 418.988281 9.800781 419.121094 9.683594 419.277344 9.589844 C 419.433594 9.5 419.617188 9.453125 419.84375 9.453125 C 420 9.453125 420.148438 9.484375 420.292969 9.53125 C 420.449219 9.585938 420.578125 9.664062 420.683594 9.765625 C 420.785156 9.859375 420.867188 9.976562 420.9375 10.117188 C 421 10.25 421.035156 10.398438 421.035156 10.566406 C 421.035156 10.789062 421 10.984375 420.9375 11.152344 C 420.867188 11.308594 420.773438 11.460938 420.644531 11.601562 C 420.511719 11.734375 420.34375 11.871094 420.136719 12.011719 C 419.941406 12.15625 419.710938 12.304688 419.453125 12.460938 C 419.226562 12.59375 419.023438 12.730469 418.828125 12.871094 C 418.632812 13.015625 418.457031 13.183594 418.300781 13.378906 C 418.144531 13.574219 418.011719 13.804688 417.910156 14.0625 C 417.804688 14.328125 417.738281 14.640625 417.714844 15 L 421.757812 15 L 421.757812 14.335938 L 418.574219 14.335938 C 418.613281 14.15625 418.679688 13.992188 418.789062 13.847656 C 418.90625 13.691406 419.042969 13.550781 419.199219 13.417969 C 419.367188 13.289062 419.539062 13.171875 419.726562 13.066406 C 419.921875 12.949219 420.117188 12.832031 420.3125 12.714844 C 420.507812 12.585938 420.695312 12.457031 420.878906 12.324219 C 421.058594 12.195312 421.214844 12.046875 421.347656 11.875 C 421.488281 11.710938 421.601562 11.519531 421.679688 11.308594 C 421.765625 11.101562 421.816406 10.859375 421.816406 10.585938 C 421.816406 10.289062 421.761719 10.03125 421.660156 9.804688 C 421.566406 9.585938 421.429688 9.40625 421.25 9.257812 C 421.078125 9.101562 420.867188 8.984375 420.625 8.90625 C 420.390625 8.828125 420.140625 8.789062 419.882812 8.789062 C 419.554688 8.789062 419.261719 8.847656 419.003906 8.964844 C 418.742188 9.070312 418.523438 9.21875 418.359375 9.414062 C 418.1875 9.609375 418.054688 9.84375 417.96875 10.117188 C 417.890625 10.390625 417.859375 10.683594 417.890625 10.996094 Z M 417.890625 10.996094 "/>
<path style=" stroke:none;fill-rule:nonzero;fill:rgb(0%,0%,0%);fill-opacity:1;" d="M 430.390625 23.496094 L 431.132812 23.496094 C 431.117188 23.300781 431.132812 23.117188 431.171875 22.929688 C 431.21875 22.75 431.292969 22.585938 431.386719 22.441406 C 431.488281 22.300781 431.621094 22.183594 431.777344 22.089844 C 431.933594 22 432.117188 21.953125 432.34375 21.953125 C 432.5 21.953125 432.648438 21.984375 432.792969 22.03125 C 432.949219 22.085938 433.078125 22.164062 433.183594 22.265625 C 433.285156 22.359375 433.367188 22.476562 433.4375 22.617188 C 433.5 22.75 433.535156 22.898438 433.535156 23.066406 C 433.535156 23.289062 433.5 23.484375 433.4375 23.652344 C 433.367188 23.808594 433.273438 23.960938 433.144531 24.101562 C 433.011719 24.234375 432.84375 24.371094 432.636719 24.511719 C 432.441406 24.65625 432.210938 24.804688 431.953125 24.960938 C 431.726562 25.09375 431.523438 25.230469 431.328125 25.371094 C 431.132812 25.515625 430.957031 25.683594 430.800781 25.878906 C 430.644531 26.074219 430.511719 26.304688 430.410156 26.5625 C 430.304688 26.828125 430.238281 27.140625 430.214844 27.5 L 434.257812 27.5 L 434.257812 26.835938 L 431.074219 26.835938 C 431.113281 26.65625 431.179688 26.492188 431.289062 26.347656 C 431.40625 26.191406 431.542969 26.050781 431.699219 25.917969 C 431.867188 25.789062 432.039062 25.671875 432.226562 25.566406 C 432.421875 25.449219 432.617188 25.332031 432.8125 25.214844 C 433.007812 25.085938 433.195312 24.957031 433.378906 24.824219 C 433.558594 24.695312 433.714844 24.546875 433.847656 24.375 C 433.988281 24.210938 434.101562 24.019531 434.179688 23.808594 C 434.265625 23.601562 434.316406 23.359375 434.316406 23.085938 C 434.316406 22.789062 434.261719 22.53125 434.160156 22.304688 C 434.066406 22.085938 433.929688 21.90625 433.75 21.757812 C 433.578125 21.601562 433.367188 21.484375 433.125 21.40625 C 432.890625 21.328125 432.640625 21.289062 432.382812 21.289062 C 432.054688 21.289062 431.761719 21.347656 431.503906 21.464844 C 431.242188 21.570312 431.023438 21.71875 430.859375 21.914062 C 430.6875 22.109375 430.554688 22.34375 430.46875 22.617188 C 430.390625 22.890625 430.359375 23.183594 430.390625 23.496094 Z M 430.390625 23.496094 "/>
<path style=" stroke:none;fill-rule:nonzero;fill:rgb(0%,0%,0%);fill-opacity:1;" d="M 430.390625 109.746094 L 431.132812 109.746094 C 431.117188 109.550781 431.132812 109.367188 431.171875 109.179688 C 431.21875 109 431.292969 108.835938 431.386719 108.691406 C 431.488281 108.550781 431.621094 108.433594 431.777344 108.339844 C 431.933594 108.25 432.117188 108.203125 432.34375 108.203125 C 432.5 108.203125 432.648438 108.234375 432.792969 108.28125 C 432.949219 108.335938 433.078125 108.414062 433.183594 108.515625 C 433.285156 108.609375 433.367188 108.726562 433.4375 108.867188 C 433.5 109 433.535156 109.148438 433.535156 109.316406 C 433.535156 109.539062 433.5 109.734375 433.4375 109.902344 C 433.367188 110.058594 433.273438 110.210938 433.144531 110.351562 C 433.011719 110.484375 432.84375 110.621094 432.636719 110.761719 C 432.441406 110.90625 432.210938 111.054688 431.953125 111.210938 C 431.726562 111.34375 431.523438 111.480469 431.328125 111.621094 C 431.132812 111.765625 430.957031 111.933594 430.800781 112.128906 C 430.644531 112.324219 430.511719 112.554688 430.410156 112.8125 C 430.304688 113.078125 430.238281 113.390625 430.214844 113.75 L 434.257812 113.75 L 434.257812 113.085938 L 431.074219 113.085938 C 431.113281 112.90625 431.179688 112.742188 431.289062 112.597656 C 431.40625 112.441406 431.542969 112.300781 431.699219 112.167969 C 431.867188 112.039062 432.039062 111.921875 432.226562 111.816406 C 432.421875 111.699219 432.617188 111.582031 432.8125 111.464844 C 433.007812 111.335938 433.195312 111.207031 433.378906 111.074219 C 433.558594 110.945312 433.714844 110.796875 433.847656 110.625 C 433.988281 110.460938 434.101562 110.269531 434.179688 110.058594 C 434.265625 109.851562 434.316406 109.609375 434.316406 109.335938 C 434.316406 109.039062 434.261719 108.78125 434.160156 108.554688 C 434.066406 108.335938 433.929688 108.15625 433.75 108.007812 C 433.578125 107.851562 433.367188 107.734375 433.125 107.65625 C 432.890625 107.578125 432.640625 107.539062 432.382812 107.539062 C 432.054688 107.539062 431.761719 107.597656 431.503906 107.714844 C 431.242188 107.820312 431.023438 107.96875 430.859375 108.164062 C 430.6875 108.359375 430.554688 108.59375 430.46875 108.867188 C 430.390625 109.140625 430.359375 109.433594 430.390625 109.746094 Z M 430.390625 109.746094 "/>
<path style=" stroke:none;fill-rule:nonzero;fill:rgb(0%,0%,0%);fill-opacity:1;" d="M 420.46875 111.640625 L 418.378906 111.640625 L 420.449219 108.613281 L 420.46875 108.613281 Z M 421.171875 111.640625 L 421.171875 107.539062 L 420.566406 107.539062 L 417.753906 111.582031 L 417.753906 112.304688 L 420.46875 112.304688 L 420.46875 113.75 L 421.171875 113.75 L 421.171875 112.304688 L 422.011719 112.304688 L 422.011719 111.640625 Z M 421.171875 111.640625 "/>
<path style=" stroke:none;fill-rule:nonzero;fill:rgb(0%,0%,0%);fill-opacity:1;" d="M 420.46875 25.390625 L 418.378906 25.390625 L 420.449219 22.363281 L 420.46875 22.363281 Z M 421.171875 25.390625 L 421.171875 21.289062 L 420.566406 21.289062 L 417.753906 25.332031 L 417.753906 26.054688 L 420.46875 26.054688 L 420.46875 27.5 L 421.171875 27.5 L 421.171875 26.054688 L 422.011719 26.054688 L 422.011719 25.390625 Z M 421.171875 25.390625 "/>
<path style=" stroke:none;fill-rule:nonzero;fill:rgb(0%,0%,0%);fill-opacity:1;" d="M 376.179688 22.871094 L 376.941406 22.871094 C 376.890625 22.363281 376.707031 21.972656 376.394531 21.699219 C 376.09375 21.425781 375.691406 21.289062 375.183594 21.289062 C 374.742188 21.289062 374.371094 21.386719 374.070312 21.582031 C 373.785156 21.765625 373.550781 22.011719 373.367188 22.324219 C 373.199219 22.636719 373.074219 23 372.996094 23.398438 C 372.929688 23.789062 372.898438 24.199219 372.898438 24.628906 C 372.898438 24.957031 372.925781 25.292969 372.976562 25.644531 C 373.027344 25.984375 373.125 26.304688 373.269531 26.601562 C 373.425781 26.890625 373.640625 27.128906 373.914062 27.324219 C 374.199219 27.503906 374.570312 27.597656 375.027344 27.597656 C 375.417969 27.597656 375.742188 27.53125 376.003906 27.402344 C 376.277344 27.273438 376.492188 27.109375 376.648438 26.914062 C 376.816406 26.710938 376.933594 26.480469 377 26.230469 C 377.078125 25.984375 377.117188 25.75 377.117188 25.527344 C 377.117188 25.242188 377.070312 24.976562 376.980469 24.726562 C 376.890625 24.484375 376.757812 24.265625 376.589844 24.082031 C 376.433594 23.902344 376.238281 23.765625 376.003906 23.671875 C 375.769531 23.570312 375.503906 23.515625 375.203125 23.515625 C 374.863281 23.515625 374.566406 23.585938 374.304688 23.710938 C 374.042969 23.828125 373.828125 24.03125 373.660156 24.316406 L 373.640625 24.296875 C 373.652344 24.0625 373.679688 23.808594 373.71875 23.535156 C 373.757812 23.261719 373.828125 23.007812 373.933594 22.773438 C 374.039062 22.539062 374.1875 22.34375 374.382812 22.1875 C 374.578125 22.03125 374.832031 21.953125 375.144531 21.953125 C 375.445312 21.953125 375.683594 22.039062 375.867188 22.207031 C 376.050781 22.378906 376.152344 22.597656 376.179688 22.871094 Z M 375.066406 24.160156 C 375.273438 24.160156 375.457031 24.199219 375.613281 24.277344 C 375.769531 24.355469 375.898438 24.460938 376.003906 24.589844 C 376.121094 24.707031 376.199219 24.859375 376.238281 25.039062 C 376.289062 25.210938 376.316406 25.386719 376.316406 25.566406 C 376.316406 25.75 376.289062 25.929688 376.238281 26.09375 C 376.1875 26.265625 376.109375 26.414062 376.003906 26.542969 C 375.898438 26.675781 375.769531 26.777344 375.613281 26.855469 C 375.457031 26.921875 375.273438 26.953125 375.066406 26.953125 C 374.859375 26.953125 374.675781 26.921875 374.519531 26.855469 C 374.363281 26.777344 374.226562 26.679688 374.109375 26.5625 C 374.003906 26.4375 373.921875 26.285156 373.855469 26.113281 C 373.804688 25.945312 373.777344 25.761719 373.777344 25.566406 C 373.777344 25.371094 373.804688 25.191406 373.855469 25.019531 C 373.921875 24.851562 374.003906 24.707031 374.109375 24.589844 C 374.226562 24.460938 374.363281 24.355469 374.519531 24.277344 C 374.675781 24.199219 374.859375 24.160156 375.066406 24.160156 Z M 375.066406 24.160156 "/>
<path style=" stroke:none;fill-rule:nonzero;fill:rgb(0%,0%,0%);fill-opacity:1;" d="M 333.613281 66.5 L 334.375 66.5 C 334.320312 65.992188 334.140625 65.601562 333.828125 65.328125 C 333.523438 65.054688 333.125 64.917969 332.617188 64.917969 C 332.171875 64.917969 331.800781 65.015625 331.503906 65.210938 C 331.214844 65.394531 330.980469 65.640625 330.800781 65.953125 C 330.628906 66.265625 330.507812 66.625 330.429688 67.027344 C 330.359375 67.417969 330.332031 67.828125 330.332031 68.257812 C 330.332031 68.582031 330.355469 68.921875 330.410156 69.273438 C 330.460938 69.613281 330.554688 69.929688 330.703125 70.230469 C 330.859375 70.515625 331.074219 70.757812 331.347656 70.953125 C 331.632812 71.132812 332 71.226562 332.460938 71.226562 C 332.851562 71.226562 333.171875 71.15625 333.4375 71.03125 C 333.710938 70.902344 333.925781 70.738281 334.082031 70.542969 C 334.25 70.335938 334.367188 70.105469 334.433594 69.859375 C 334.511719 69.613281 334.550781 69.378906 334.550781 69.15625 C 334.550781 68.871094 334.5 68.601562 334.414062 68.355469 C 334.320312 68.109375 334.1875 67.894531 334.023438 67.710938 C 333.867188 67.527344 333.671875 67.390625 333.4375 67.300781 C 333.203125 67.195312 332.933594 67.144531 332.636719 67.144531 C 332.296875 67.144531 331.996094 67.210938 331.738281 67.339844 C 331.476562 67.457031 331.257812 67.660156 331.09375 67.945312 L 331.074219 67.925781 C 331.085938 67.691406 331.113281 67.4375 331.152344 67.164062 C 331.191406 66.890625 331.257812 66.636719 331.367188 66.402344 C 331.46875 66.167969 331.621094 65.972656 331.816406 65.816406 C 332.011719 65.660156 332.265625 65.582031 332.578125 65.582031 C 332.875 65.582031 333.117188 65.667969 333.300781 65.835938 C 333.480469 66.003906 333.585938 66.226562 333.613281 66.5 Z M 332.5 67.789062 C 332.703125 67.789062 332.890625 67.828125 333.046875 67.90625 C 333.203125 67.984375 333.328125 68.089844 333.4375 68.21875 C 333.554688 68.335938 333.632812 68.484375 333.671875 68.667969 C 333.71875 68.835938 333.75 69.011719 333.75 69.195312 C 333.75 69.378906 333.71875 69.554688 333.671875 69.722656 C 333.617188 69.890625 333.539062 70.042969 333.4375 70.171875 C 333.328125 70.300781 333.203125 70.40625 333.046875 70.484375 C 332.890625 70.550781 332.703125 70.582031 332.5 70.582031 C 332.289062 70.582031 332.109375 70.550781 331.953125 70.484375 C 331.796875 70.40625 331.660156 70.308594 331.542969 70.191406 C 331.4375 70.0625 331.351562 69.910156 331.289062 69.742188 C 331.234375 69.574219 331.210938 69.390625 331.210938 69.195312 C 331.210938 69 331.234375 68.816406 331.289062 68.648438 C 331.351562 68.480469 331.4375 68.335938 331.542969 68.21875 C 331.660156 68.089844 331.796875 67.984375 331.953125 67.90625 C 332.109375 67.828125 332.289062 67.789062 332.5 67.789062 Z M 332.5 67.789062 "/>
<path style=" stroke:none;fill-rule:nonzero;fill:rgb(0%,0%,0%);fill-opacity:1;" d="M 421.113281 66.5 L 421.875 66.5 C 421.820312 65.992188 421.640625 65.601562 421.328125 65.328125 C 421.023438 65.054688 420.625 64.917969 420.117188 64.917969 C 419.671875 64.917969 419.300781 65.015625 419.003906 65.210938 C 418.714844 65.394531 418.480469 65.640625 418.300781 65.953125 C 418.128906 66.265625 418.007812 66.625 417.929688 67.027344 C 417.859375 67.417969 417.832031 67.828125 417.832031 68.257812 C 417.832031 68.582031 417.855469 68.921875 417.910156 69.273438 C 417.960938 69.613281 418.054688 69.929688 418.203125 70.230469 C 418.359375 70.515625 418.574219 70.757812 418.847656 70.953125 C 419.132812 71.132812 419.5 71.226562 419.960938 71.226562 C 420.351562 71.226562 420.671875 71.15625 420.9375 71.03125 C 421.210938 70.902344 421.425781 70.738281 421.582031 70.542969 C 421.75 70.335938 421.867188 70.105469 421.933594 69.859375 C 422.011719 69.613281 422.050781 69.378906 422.050781 69.15625 C 422.050781 68.871094 422 68.601562 421.914062 68.355469 C 421.820312 68.109375 421.6875 67.894531 421.523438 67.710938 C 421.367188 67.527344 421.171875 67.390625 420.9375 67.300781 C 420.703125 67.195312 420.433594 67.144531 420.136719 67.144531 C 419.796875 67.144531 419.496094 67.210938 419.238281 67.339844 C 418.976562 67.457031 418.757812 67.660156 418.59375 67.945312 L 418.574219 67.925781 C 418.585938 67.691406 418.613281 67.4375 418.652344 67.164062 C 418.691406 66.890625 418.757812 66.636719 418.867188 66.402344 C 418.96875 66.167969 419.121094 65.972656 419.316406 65.816406 C 419.511719 65.660156 419.765625 65.582031 420.078125 65.582031 C 420.375 65.582031 420.617188 65.667969 420.800781 65.835938 C 420.980469 66.003906 421.085938 66.226562 421.113281 66.5 Z M 420 67.789062 C 420.203125 67.789062 420.390625 67.828125 420.546875 67.90625 C 420.703125 67.984375 420.828125 68.089844 420.9375 68.21875 C 421.054688 68.335938 421.132812 68.484375 421.171875 68.667969 C 421.21875 68.835938 421.25 69.011719 421.25 69.195312 C 421.25 69.378906 421.21875 69.554688 421.171875 69.722656 C 421.117188 69.890625 421.039062 70.042969 420.9375 70.171875 C 420.828125 70.300781 420.703125 70.40625 420.546875 70.484375 C 420.390625 70.550781 420.203125 70.582031 420 70.582031 C 419.789062 70.582031 419.609375 70.550781 419.453125 70.484375 C 419.296875 70.40625 419.160156 70.308594 419.042969 70.191406 C 418.9375 70.0625 418.851562 69.910156 418.789062 69.742188 C 418.734375 69.574219 418.710938 69.390625 418.710938 69.195312 C 418.710938 69 418.734375 68.816406 418.789062 68.648438 C 418.851562 68.480469 418.9375 68.335938 419.042969 68.21875 C 419.160156 68.089844 419.296875 67.984375 419.453125 67.90625 C 419.609375 67.828125 419.789062 67.789062 420 67.789062 Z M 420 67.789062 "/>
<path style=" stroke:none;fill-rule:nonzero;fill:rgb(0%,0%,0%);fill-opacity:1;" d="M 376.179688 109.121094 L 376.941406 109.121094 C 376.890625 108.613281 376.707031 108.222656 376.394531 107.949219 C 376.09375 107.675781 375.691406 107.539062 375.183594 107.539062 C 374.742188 107.539062 374.371094 107.636719 374.070312 107.832031 C 373.785156 108.015625 373.550781 108.261719 373.367188 108.574219 C 373.199219 108.886719 373.074219 109.25 372.996094 109.648438 C 372.929688 110.039062 372.898438 110.449219 372.898438 110.878906 C 372.898438 111.207031 372.925781 111.542969 372.976562 111.894531 C 373.027344 112.234375 373.125 112.554688 373.269531 112.851562 C 373.425781 113.140625 373.640625 113.378906 373.914062 113.574219 C 374.199219 113.753906 374.570312 113.847656 375.027344 113.847656 C 375.417969 113.847656 375.742188 113.78125 376.003906 113.652344 C 376.277344 113.523438 376.492188 113.359375 376.648438 113.164062 C 376.816406 112.960938 376.933594 112.730469 377 112.480469 C 377.078125 112.234375 377.117188 112 377.117188 111.777344 C 377.117188 111.492188 377.070312 111.226562 376.980469 110.976562 C 376.890625 110.734375 376.757812 110.515625 376.589844 110.332031 C 376.433594 110.152344 376.238281 110.015625 376.003906 109.921875 C 375.769531 109.820312 375.503906 109.765625 375.203125 109.765625 C 374.863281 109.765625 374.566406 109.835938 374.304688 109.960938 C 374.042969 110.078125 373.828125 110.28125 373.660156 110.566406 L 373.640625 110.546875 C 373.652344 110.3125 373.679688 110.058594 373.71875 109.785156 C 373.757812 109.511719 373.828125 109.257812 373.933594 109.023438 C 374.039062 108.789062 374.1875 108.59375 374.382812 108.4375 C 374.578125 108.28125 374.832031 108.203125 375.144531 108.203125 C 375.445312 108.203125 375.683594 108.289062 375.867188 108.457031 C 376.050781 108.628906 376.152344 108.847656 376.179688 109.121094 Z M 375.066406 110.410156 C 375.273438 110.410156 375.457031 110.449219 375.613281 110.527344 C 375.769531 110.605469 375.898438 110.710938 376.003906 110.839844 C 376.121094 110.957031 376.199219 111.109375 376.238281 111.289062 C 376.289062 111.460938 376.316406 111.636719 376.316406 111.816406 C 376.316406 112 376.289062 112.179688 376.238281 112.34375 C 376.1875 112.515625 376.109375 112.664062 376.003906 112.792969 C 375.898438 112.925781 375.769531 113.027344 375.613281 113.105469 C 375.457031 113.171875 375.273438 113.203125 375.066406 113.203125 C 374.859375 113.203125 374.675781 113.171875 374.519531 113.105469 C 374.363281 113.027344 374.226562 112.929688 374.109375 112.8125 C 374.003906 112.6875 373.921875 112.535156 373.855469 112.363281 C 373.804688 112.195312 373.777344 112.011719 373.777344 111.816406 C 373.777344 111.621094 373.804688 111.441406 373.855469 111.269531 C 373.921875 111.101562 374.003906 110.957031 374.109375 110.839844 C 374.226562 110.710938 374.363281 110.605469 374.519531 110.527344 C 374.675781 110.449219 374.859375 110.410156 375.066406 110.410156 Z M 375.066406 110.410156 "/>
<path style=" stroke:none;fill-rule:nonzero;fill:rgb(12.941176%,30.980392%,51.764706%);fill-opacity:0.25098;" d="M 1.25 130 L 126.25 130 L 126.25 5 L 1.25 5 Z M 1.25 130 "/>
<path style="fill:none;stroke-width:1;stroke-linecap:round;stroke-linejoin:round;stroke:rgb(0%,0%,0%);stroke-opacity:1;stroke-miterlimit:10;" d="M -100 145 L 0 145 L 0 245 L -100 245 Z M -100 145 " transform="matrix(1.25,0,0,1.25,126.25,-176.25)"/>
<path style=" stroke:none;fill-rule:nonzero;fill:rgb(0%,0%,0%);fill-opacity:1;" d="M 64.355469 71.128906 L 64.355469 64.917969 L 63.789062 64.917969 C 63.75 65.152344 63.671875 65.347656 63.554688 65.503906 C 63.445312 65.660156 63.320312 65.785156 63.164062 65.875 C 63.007812 65.953125 62.820312 66.011719 62.617188 66.050781 C 62.421875 66.078125 62.21875 66.089844 62.011719 66.089844 L 62.011719 66.675781 L 63.613281 66.675781 L 63.613281 71.128906 Z M 64.355469 71.128906 "/>
</g>
</svg>
