<?xml version="1.0" encoding="UTF-8"?>
<svg xmlns="http://www.w3.org/2000/svg" xmlns:xlink="http://www.w3.org/1999/xlink" width="378.666667" height="196" viewBox="0 0 378.666667 196" version="1.1">
<g id="surface1">
<path style="fill:none;stroke-width:1;stroke-linecap:round;stroke-linejoin:round;stroke:rgb(0%,0%,0%);stroke-opacity:1;stroke-miterlimit:10;" d="M 673.799805 397.800781 L 708.704102 397.800781 L 708.704102 413.149414 L 673.799805 413.149414 Z M 673.799805 397.800781 " transform="matrix(1.333333,0,0,1.333333,-893.333333,-410.666667)"/>
<path style=" stroke:none;fill-rule:nonzero;fill:rgb(0%,0%,0%);fill-opacity:1;" d="M 21.316406 133.769531 L 21.316406 125.183594 L 27.109375 125.183594 L 27.109375 126.183594 L 22.464844 126.183594 L 22.464844 128.851562 L 26.484375 128.851562 L 26.484375 129.871094 L 22.464844 129.871094 L 22.464844 133.769531 Z M 21.316406 133.769531 "/>
<path style=" stroke:none;fill-rule:nonzero;fill:rgb(0%,0%,0%);fill-opacity:1;" d="M 34.730469 130.746094 L 35.855469 131.039062 C 35.617188 131.972656 35.1875 132.683594 34.5625 133.183594 C 33.949219 133.675781 33.195312 133.914062 32.292969 133.914062 C 31.375 133.914062 30.625 133.726562 30.042969 133.351562 C 29.460938 132.976562 29.011719 132.433594 28.710938 131.726562 C 28.417969 131.007812 28.273438 130.238281 28.273438 129.414062 C 28.273438 128.511719 28.4375 127.726562 28.773438 127.058594 C 29.117188 126.394531 29.605469 125.894531 30.230469 125.558594 C 30.867188 125.214844 31.5625 125.039062 32.3125 125.039062 C 33.171875 125.039062 33.898438 125.261719 34.480469 125.707031 C 35.074219 126.136719 35.484375 126.746094 35.710938 127.539062 L 34.585938 127.789062 C 34.386719 127.164062 34.105469 126.714844 33.730469 126.433594 C 33.355469 126.144531 32.875 125.996094 32.292969 125.996094 C 31.636719 125.996094 31.089844 126.160156 30.648438 126.476562 C 30.199219 126.800781 29.886719 127.226562 29.710938 127.769531 C 29.527344 128.300781 29.4375 128.839844 29.4375 129.394531 C 29.4375 130.132812 29.542969 130.777344 29.75 131.332031 C 29.96875 131.871094 30.304688 132.277344 30.75 132.539062 C 31.195312 132.804688 31.679688 132.933594 32.210938 132.933594 C 32.84375 132.933594 33.382812 132.757812 33.8125 132.394531 C 34.257812 132.019531 34.5625 131.472656 34.730469 130.746094 Z M 34.730469 130.746094 "/>
<path style="fill-rule:nonzero;fill:rgb(40.000001%,74.901962%,100%);fill-opacity:1;stroke-width:1;stroke-linecap:round;stroke-linejoin:round;stroke:rgb(0%,0%,0%);stroke-opacity:1;stroke-miterlimit:10;" d="M 673.799805 366.397461 L 787.799805 366.397461 L 787.799805 383.899414 L 673.799805 383.899414 Z M 673.799805 366.397461 " transform="matrix(1.333333,0,0,1.333333,-893.333333,-410.666667)"/>
<path style=" stroke:none;fill-rule:nonzero;fill:rgb(0%,0%,0%);fill-opacity:1;" d="M 57.363281 93.335938 L 60.675781 84.753906 L 61.882812 84.753906 L 65.402344 93.335938 L 64.113281 93.335938 L 63.113281 90.734375 L 59.507812 90.734375 L 58.570312 93.335938 Z M 59.839844 89.816406 L 62.757812 89.816406 L 61.863281 87.421875 C 61.582031 86.703125 61.382812 86.109375 61.257812 85.648438 C 61.144531 86.207031 60.988281 86.753906 60.777344 87.296875 Z M 59.839844 89.816406 "/>
<path style=" stroke:none;fill-rule:nonzero;fill:rgb(0%,0%,0%);fill-opacity:1;" d="M 68.492188 92.398438 L 68.636719 93.316406 C 68.328125 93.382812 68.0625 93.421875 67.84375 93.421875 C 67.453125 93.421875 67.15625 93.359375 66.949219 93.234375 C 66.742188 93.109375 66.585938 92.953125 66.492188 92.753906 C 66.40625 92.5625 66.367188 92.148438 66.367188 91.523438 L 66.367188 87.941406 L 65.59375 87.941406 L 65.59375 87.109375 L 66.367188 87.109375 L 66.367188 85.566406 L 67.429688 84.941406 L 67.429688 87.109375 L 68.492188 87.109375 L 68.492188 87.941406 L 67.429688 87.941406 L 67.429688 91.566406 C 67.429688 91.875 67.4375 92.066406 67.46875 92.148438 C 67.511719 92.234375 67.574219 92.304688 67.65625 92.359375 C 67.742188 92.414062 67.855469 92.441406 68.011719 92.441406 C 68.136719 92.441406 68.292969 92.429688 68.492188 92.398438 Z M 68.492188 92.398438 "/>
<path style=" stroke:none;fill-rule:nonzero;fill:rgb(0%,0%,0%);fill-opacity:1;" d="M 71.824219 92.398438 L 71.96875 93.316406 C 71.664062 93.382812 71.398438 93.421875 71.179688 93.421875 C 70.789062 93.421875 70.492188 93.359375 70.28125 93.234375 C 70.074219 93.109375 69.917969 92.953125 69.824219 92.753906 C 69.742188 92.5625 69.699219 92.148438 69.699219 91.523438 L 69.699219 87.941406 L 68.929688 87.941406 L 68.929688 87.109375 L 69.699219 87.109375 L 69.699219 85.566406 L 70.761719 84.941406 L 70.761719 87.109375 L 71.824219 87.109375 L 71.824219 87.941406 L 70.761719 87.941406 L 70.761719 91.566406 C 70.761719 91.875 70.773438 92.066406 70.804688 92.148438 C 70.84375 92.234375 70.90625 92.304688 70.992188 92.359375 C 71.074219 92.414062 71.1875 92.441406 71.34375 92.441406 C 71.46875 92.441406 71.625 92.429688 71.824219 92.398438 Z M 71.824219 92.398438 "/>
<path style=" stroke:none;fill-rule:nonzero;fill:rgb(0%,0%,0%);fill-opacity:1;" d="M 77.097656 91.335938 L 78.199219 91.460938 C 78.019531 92.101562 77.691406 92.601562 77.222656 92.960938 C 76.761719 93.3125 76.167969 93.484375 75.449219 93.484375 C 74.542969 93.484375 73.824219 93.207031 73.285156 92.648438 C 72.753906 92.082031 72.492188 91.289062 72.492188 90.273438 C 72.492188 89.234375 72.761719 88.429688 73.304688 87.859375 C 73.847656 87.273438 74.542969 86.984375 75.410156 86.984375 C 76.242188 86.984375 76.914062 87.269531 77.429688 87.835938 C 77.957031 88.394531 78.222656 89.1875 78.222656 90.210938 C 78.222656 90.285156 78.222656 90.378906 78.222656 90.503906 L 73.574219 90.503906 C 73.617188 91.1875 73.808594 91.707031 74.160156 92.066406 C 74.503906 92.429688 74.941406 92.609375 75.472656 92.609375 C 75.855469 92.609375 76.183594 92.515625 76.449219 92.316406 C 76.726562 92.109375 76.941406 91.785156 77.097656 91.335938 Z M 73.636719 89.628906 L 77.117188 89.628906 C 77.074219 89.101562 76.941406 88.707031 76.722656 88.441406 C 76.386719 88.039062 75.949219 87.835938 75.410156 87.835938 C 74.917969 87.835938 74.511719 88.003906 74.179688 88.335938 C 73.855469 88.660156 73.679688 89.085938 73.636719 89.628906 Z M 73.636719 89.628906 "/>
<path style=" stroke:none;fill-rule:nonzero;fill:rgb(0%,0%,0%);fill-opacity:1;" d="M 79.519531 93.335938 L 79.519531 87.109375 L 80.480469 87.109375 L 80.480469 88.003906 C 80.921875 87.328125 81.582031 86.984375 82.457031 86.984375 C 82.832031 86.984375 83.171875 87.054688 83.480469 87.191406 C 83.796875 87.316406 84.03125 87.492188 84.1875 87.710938 C 84.339844 87.921875 84.449219 88.179688 84.519531 88.484375 C 84.5625 88.679688 84.582031 89.019531 84.582031 89.503906 L 84.582031 93.335938 L 83.519531 93.335938 L 83.519531 89.546875 C 83.519531 89.117188 83.480469 88.796875 83.394531 88.585938 C 83.3125 88.378906 83.167969 88.210938 82.957031 88.085938 C 82.75 87.953125 82.503906 87.878906 82.230469 87.878906 C 81.78125 87.878906 81.394531 88.023438 81.0625 88.316406 C 80.738281 88.597656 80.582031 89.140625 80.582031 89.941406 L 80.582031 93.335938 Z M 79.519531 93.335938 "/>
<path style=" stroke:none;fill-rule:nonzero;fill:rgb(0%,0%,0%);fill-opacity:1;" d="M 88.507812 92.398438 L 88.652344 93.316406 C 88.347656 93.382812 88.082031 93.421875 87.863281 93.421875 C 87.472656 93.421875 87.175781 93.359375 86.964844 93.234375 C 86.757812 93.109375 86.601562 92.953125 86.507812 92.753906 C 86.425781 92.5625 86.382812 92.148438 86.382812 91.523438 L 86.382812 87.941406 L 85.613281 87.941406 L 85.613281 87.109375 L 86.382812 87.109375 L 86.382812 85.566406 L 87.445312 84.941406 L 87.445312 87.109375 L 88.507812 87.109375 L 88.507812 87.941406 L 87.445312 87.941406 L 87.445312 91.566406 C 87.445312 91.875 87.457031 92.066406 87.488281 92.148438 C 87.527344 92.234375 87.589844 92.304688 87.675781 92.359375 C 87.757812 92.414062 87.871094 92.441406 88.027344 92.441406 C 88.152344 92.441406 88.308594 92.429688 88.507812 92.398438 Z M 88.507812 92.398438 "/>
<path style=" stroke:none;fill-rule:nonzero;fill:rgb(0%,0%,0%);fill-opacity:1;" d="M 89.527344 85.960938 L 89.527344 84.753906 L 90.589844 84.753906 L 90.589844 85.960938 Z M 89.527344 93.335938 L 89.527344 87.109375 L 90.589844 87.109375 L 90.589844 93.335938 Z M 89.527344 93.335938 "/>
<path style=" stroke:none;fill-rule:nonzero;fill:rgb(0%,0%,0%);fill-opacity:1;" d="M 91.800781 90.234375 C 91.800781 89.082031 92.117188 88.226562 92.757812 87.671875 C 93.300781 87.210938 93.949219 86.984375 94.714844 86.984375 C 95.574219 86.984375 96.277344 87.265625 96.820312 87.816406 C 97.363281 88.375 97.632812 89.144531 97.632812 90.128906 C 97.632812 90.9375 97.507812 91.566406 97.257812 92.023438 C 97.019531 92.484375 96.675781 92.847656 96.214844 93.109375 C 95.757812 93.359375 95.257812 93.484375 94.714844 93.484375 C 93.839844 93.484375 93.132812 93.207031 92.589844 92.648438 C 92.058594 92.082031 91.800781 91.273438 91.800781 90.234375 Z M 92.882812 90.234375 C 92.882812 91.023438 93.054688 91.625 93.402344 92.023438 C 93.746094 92.414062 94.183594 92.609375 94.714844 92.609375 C 95.242188 92.609375 95.679688 92.414062 96.027344 92.023438 C 96.371094 91.625 96.550781 91.015625 96.550781 90.191406 C 96.550781 89.429688 96.371094 88.847656 96.027344 88.441406 C 95.679688 88.039062 95.242188 87.835938 94.714844 87.835938 C 94.183594 87.835938 93.746094 88.039062 93.402344 88.441406 C 93.054688 88.832031 92.882812 89.429688 92.882812 90.234375 Z M 92.882812 90.234375 "/>
<path style=" stroke:none;fill-rule:nonzero;fill:rgb(0%,0%,0%);fill-opacity:1;" d="M 98.867188 93.335938 L 98.867188 87.109375 L 99.828125 87.109375 L 99.828125 88.003906 C 100.269531 87.328125 100.929688 86.984375 101.804688 86.984375 C 102.179688 86.984375 102.519531 87.054688 102.828125 87.191406 C 103.144531 87.316406 103.378906 87.492188 103.535156 87.710938 C 103.6875 87.921875 103.796875 88.179688 103.867188 88.484375 C 103.910156 88.679688 103.929688 89.019531 103.929688 89.503906 L 103.929688 93.335938 L 102.867188 93.335938 L 102.867188 89.546875 C 102.867188 89.117188 102.828125 88.796875 102.742188 88.585938 C 102.660156 88.378906 102.515625 88.210938 102.304688 88.085938 C 102.097656 87.953125 101.851562 87.878906 101.578125 87.878906 C 101.128906 87.878906 100.742188 88.023438 100.410156 88.316406 C 100.085938 88.597656 99.929688 89.140625 99.929688 89.941406 L 99.929688 93.335938 Z M 98.867188 93.335938 "/>
<path style=" stroke:none;fill-rule:nonzero;fill:rgb(0%,0%,0%);fill-opacity:1;" d="M 14.765625 187.882812 C 15.289062 188.246094 15.773438 188.507812 16.222656 188.675781 L 15.890625 189.464844 C 15.265625 189.242188 14.644531 188.886719 14.035156 188.402344 C 13.394531 188.769531 12.691406 188.945312 11.929688 188.945312 C 11.148438 188.945312 10.441406 188.757812 9.804688 188.382812 C 9.179688 188.007812 8.691406 187.480469 8.347656 186.800781 C 8.015625 186.121094 7.847656 185.355469 7.847656 184.507812 C 7.847656 183.664062 8.015625 182.894531 8.347656 182.195312 C 8.691406 181.503906 9.1875 180.976562 9.828125 180.613281 C 10.460938 180.238281 11.171875 180.050781 11.953125 180.050781 C 12.742188 180.050781 13.457031 180.246094 14.097656 180.632812 C 14.734375 181.007812 15.222656 181.539062 15.554688 182.214844 C 15.890625 182.882812 16.054688 183.648438 16.054688 184.507812 C 16.054688 185.207031 15.941406 185.835938 15.722656 186.402344 C 15.515625 186.976562 15.191406 187.464844 14.765625 187.882812 Z M 12.265625 186.425781 C 12.914062 186.605469 13.457031 186.878906 13.890625 187.238281 C 14.554688 186.644531 14.890625 185.730469 14.890625 184.507812 C 14.890625 183.800781 14.769531 183.191406 14.535156 182.675781 C 14.296875 182.164062 13.953125 181.757812 13.492188 181.464844 C 13.035156 181.175781 12.519531 181.027344 11.953125 181.027344 C 11.101562 181.027344 10.398438 181.320312 9.847656 181.902344 C 9.289062 182.488281 9.015625 183.355469 9.015625 184.507812 C 9.015625 185.621094 9.289062 186.476562 9.847656 187.070312 C 10.398438 187.667969 11.101562 187.964844 11.953125 187.964844 C 12.367188 187.964844 12.753906 187.894531 13.117188 187.738281 C 12.753906 187.519531 12.378906 187.355469 11.992188 187.257812 Z M 12.265625 186.425781 "/>
<path style=" stroke:none;fill-rule:nonzero;fill:rgb(0%,0%,0%);fill-opacity:1;" d="M 21.535156 188.800781 L 21.535156 187.882812 C 21.046875 188.589844 20.390625 188.945312 19.558594 188.945312 C 19.191406 188.945312 18.855469 188.871094 18.535156 188.738281 C 18.214844 188.585938 17.972656 188.402344 17.808594 188.195312 C 17.652344 187.988281 17.546875 187.730469 17.496094 187.425781 C 17.453125 187.214844 17.433594 186.882812 17.433594 186.425781 L 17.433594 182.570312 L 18.472656 182.570312 L 18.472656 186.027344 C 18.472656 186.585938 18.5 186.957031 18.558594 187.132812 C 18.609375 187.414062 18.746094 187.632812 18.953125 187.800781 C 19.171875 187.957031 19.441406 188.027344 19.765625 188.027344 C 20.082031 188.027344 20.378906 187.957031 20.660156 187.800781 C 20.9375 187.632812 21.128906 187.414062 21.246094 187.132812 C 21.355469 186.855469 21.410156 186.445312 21.410156 185.902344 L 21.410156 182.570312 L 22.472656 182.570312 L 22.472656 188.800781 Z M 21.535156 188.800781 "/>
<path style=" stroke:none;fill-rule:nonzero;fill:rgb(0%,0%,0%);fill-opacity:1;" d="M 28.378906 186.800781 L 29.480469 186.925781 C 29.300781 187.566406 28.972656 188.066406 28.503906 188.425781 C 28.042969 188.773438 27.449219 188.945312 26.730469 188.945312 C 25.824219 188.945312 25.105469 188.667969 24.566406 188.113281 C 24.035156 187.542969 23.773438 186.753906 23.773438 185.738281 C 23.773438 184.695312 24.042969 183.894531 24.585938 183.320312 C 25.128906 182.738281 25.824219 182.445312 26.691406 182.445312 C 27.523438 182.445312 28.195312 182.730469 28.710938 183.300781 C 29.238281 183.855469 29.503906 184.648438 29.503906 185.675781 C 29.503906 185.746094 29.503906 185.839844 29.503906 185.964844 L 24.855469 185.964844 C 24.898438 186.648438 25.089844 187.167969 25.441406 187.527344 C 25.785156 187.894531 26.222656 188.070312 26.753906 188.070312 C 27.136719 188.070312 27.464844 187.976562 27.730469 187.777344 C 28.007812 187.570312 28.222656 187.246094 28.378906 186.800781 Z M 24.917969 185.089844 L 28.398438 185.089844 C 28.355469 184.566406 28.222656 184.167969 28.003906 183.902344 C 27.667969 183.503906 27.230469 183.300781 26.691406 183.300781 C 26.199219 183.300781 25.792969 183.464844 25.460938 183.800781 C 25.136719 184.121094 24.960938 184.550781 24.917969 185.089844 Z M 24.917969 185.089844 "/>
<path style=" stroke:none;fill-rule:nonzero;fill:rgb(0%,0%,0%);fill-opacity:1;" d="M 30.78125 188.800781 L 30.78125 182.570312 L 31.738281 182.570312 L 31.738281 183.527344 C 31.972656 183.085938 32.195312 182.792969 32.40625 182.652344 C 32.613281 182.519531 32.84375 182.445312 33.09375 182.445312 C 33.4375 182.445312 33.800781 182.558594 34.175781 182.777344 L 33.800781 183.757812 C 33.550781 183.605469 33.289062 183.527344 33.03125 183.527344 C 32.804688 183.527344 32.597656 183.601562 32.40625 183.738281 C 32.222656 183.878906 32.09375 184.070312 32.007812 184.320312 C 31.894531 184.695312 31.84375 185.105469 31.84375 185.550781 L 31.84375 188.800781 Z M 30.78125 188.800781 "/>
<path style=" stroke:none;fill-rule:nonzero;fill:rgb(0%,0%,0%);fill-opacity:1;" d="M 34.796875 181.425781 L 34.796875 180.214844 L 35.859375 180.214844 L 35.859375 181.425781 Z M 34.796875 188.800781 L 34.796875 182.570312 L 35.859375 182.570312 L 35.859375 188.800781 Z M 34.796875 188.800781 "/>
<path style=" stroke:none;fill-rule:nonzero;fill:rgb(0%,0%,0%);fill-opacity:1;" d="M 41.714844 186.800781 L 42.816406 186.925781 C 42.636719 187.566406 42.308594 188.066406 41.839844 188.425781 C 41.378906 188.773438 40.785156 188.945312 40.066406 188.945312 C 39.160156 188.945312 38.441406 188.667969 37.902344 188.113281 C 37.371094 187.542969 37.109375 186.753906 37.109375 185.738281 C 37.109375 184.695312 37.378906 183.894531 37.921875 183.320312 C 38.464844 182.738281 39.160156 182.445312 40.027344 182.445312 C 40.859375 182.445312 41.53125 182.730469 42.046875 183.300781 C 42.574219 183.855469 42.839844 184.648438 42.839844 185.675781 C 42.839844 185.746094 42.839844 185.839844 42.839844 185.964844 L 38.191406 185.964844 C 38.234375 186.648438 38.425781 187.167969 38.777344 187.527344 C 39.121094 187.894531 39.558594 188.070312 40.089844 188.070312 C 40.472656 188.070312 40.800781 187.976562 41.066406 187.777344 C 41.34375 187.570312 41.558594 187.246094 41.714844 186.800781 Z M 38.253906 185.089844 L 41.734375 185.089844 C 41.691406 184.566406 41.558594 184.167969 41.339844 183.902344 C 41.003906 183.503906 40.566406 183.300781 40.027344 183.300781 C 39.535156 183.300781 39.128906 183.464844 38.796875 183.800781 C 38.472656 184.121094 38.296875 184.550781 38.253906 185.089844 Z M 38.253906 185.089844 "/>
<path style=" stroke:none;fill-rule:nonzero;fill:rgb(0%,0%,0%);fill-opacity:1;" d="M 43.722656 186.945312 L 44.761719 186.777344 C 44.816406 187.195312 44.976562 187.519531 45.242188 187.738281 C 45.519531 187.960938 45.894531 188.070312 46.367188 188.070312 C 46.851562 188.070312 47.210938 187.976562 47.449219 187.777344 C 47.683594 187.585938 47.804688 187.355469 47.804688 187.089844 C 47.804688 186.839844 47.699219 186.652344 47.492188 186.527344 C 47.335938 186.433594 46.976562 186.308594 46.410156 186.152344 C 45.628906 185.960938 45.085938 185.792969 44.785156 185.652344 C 44.492188 185.519531 44.269531 185.320312 44.117188 185.070312 C 43.960938 184.820312 43.886719 184.542969 43.886719 184.238281 C 43.886719 183.960938 43.949219 183.707031 44.074219 183.464844 C 44.199219 183.230469 44.371094 183.027344 44.597656 182.863281 C 44.761719 182.753906 44.980469 182.652344 45.261719 182.570312 C 45.554688 182.488281 45.855469 182.445312 46.179688 182.445312 C 46.664062 182.445312 47.085938 182.519531 47.449219 182.652344 C 47.824219 182.792969 48.101562 182.980469 48.285156 183.214844 C 48.460938 183.457031 48.585938 183.773438 48.660156 184.175781 L 47.617188 184.320312 C 47.574219 184.003906 47.433594 183.753906 47.199219 183.570312 C 46.976562 183.394531 46.664062 183.300781 46.261719 183.300781 C 45.773438 183.300781 45.429688 183.382812 45.222656 183.550781 C 45.011719 183.707031 44.910156 183.894531 44.910156 184.113281 C 44.910156 184.253906 44.949219 184.371094 45.035156 184.464844 C 45.117188 184.589844 45.253906 184.691406 45.449219 184.757812 C 45.542969 184.800781 45.851562 184.894531 46.367188 185.027344 C 47.117188 185.226562 47.636719 185.382812 47.929688 185.507812 C 48.230469 185.632812 48.472656 185.820312 48.636719 186.070312 C 48.804688 186.308594 48.886719 186.605469 48.886719 186.964844 C 48.886719 187.332031 48.785156 187.664062 48.574219 187.964844 C 48.367188 188.273438 48.066406 188.519531 47.679688 188.695312 C 47.304688 188.863281 46.867188 188.945312 46.367188 188.945312 C 45.558594 188.945312 44.941406 188.777344 44.511719 188.445312 C 44.097656 188.101562 43.832031 187.601562 43.722656 186.945312 Z M 43.722656 186.945312 "/>
<path style=" stroke:none;fill-rule:nonzero;fill:rgb(0%,0%,0%);fill-opacity:1;" d="M 68.601562 188.800781 L 68.601562 180.214844 L 69.75 180.214844 L 69.75 184.464844 L 74.019531 180.214844 L 75.539062 180.214844 L 71.957031 183.695312 L 75.707031 188.800781 L 74.207031 188.800781 L 71.144531 184.445312 L 69.75 185.820312 L 69.75 188.800781 Z M 68.601562 188.800781 "/>
<path style=" stroke:none;fill-rule:nonzero;fill:rgb(0%,0%,0%);fill-opacity:1;" d="M 80.773438 186.800781 L 81.878906 186.925781 C 81.695312 187.566406 81.367188 188.066406 80.898438 188.425781 C 80.441406 188.773438 79.847656 188.945312 79.128906 188.945312 C 78.222656 188.945312 77.503906 188.667969 76.960938 188.113281 C 76.429688 187.542969 76.167969 186.753906 76.167969 185.738281 C 76.167969 184.695312 76.441406 183.894531 76.980469 183.320312 C 77.523438 182.738281 78.222656 182.445312 79.085938 182.445312 C 79.917969 182.445312 80.589844 182.730469 81.105469 183.300781 C 81.632812 183.855469 81.898438 184.648438 81.898438 185.675781 C 81.898438 185.746094 81.898438 185.839844 81.898438 185.964844 L 77.253906 185.964844 C 77.292969 186.648438 77.488281 187.167969 77.835938 187.527344 C 78.179688 187.894531 78.617188 188.070312 79.148438 188.070312 C 79.535156 188.070312 79.863281 187.976562 80.128906 187.777344 C 80.402344 187.570312 80.617188 187.246094 80.773438 186.800781 Z M 77.316406 185.089844 L 80.792969 185.089844 C 80.753906 184.566406 80.617188 184.167969 80.398438 183.902344 C 80.066406 183.503906 79.628906 183.300781 79.085938 183.300781 C 78.597656 183.300781 78.191406 183.464844 77.855469 183.800781 C 77.535156 184.121094 77.355469 184.550781 77.316406 185.089844 Z M 77.316406 185.089844 "/>
<path style=" stroke:none;fill-rule:nonzero;fill:rgb(0%,0%,0%);fill-opacity:1;" d="M 83.15625 191.195312 L 83.03125 190.214844 C 83.265625 190.269531 83.46875 190.300781 83.636719 190.300781 C 83.871094 190.300781 84.058594 190.257812 84.199219 190.175781 C 84.332031 190.101562 84.453125 189.996094 84.550781 189.863281 C 84.605469 189.746094 84.707031 189.488281 84.863281 189.070312 C 84.890625 189.011719 84.925781 188.929688 84.96875 188.820312 L 82.59375 182.570312 L 83.738281 182.570312 L 85.03125 186.175781 C 85.199219 186.632812 85.347656 187.113281 85.488281 187.613281 C 85.597656 187.144531 85.738281 186.667969 85.90625 186.195312 L 87.238281 182.570312 L 88.300781 182.570312 L 85.925781 188.902344 C 85.675781 189.582031 85.480469 190.054688 85.34375 190.320312 C 85.144531 190.664062 84.933594 190.914062 84.699219 191.070312 C 84.457031 191.238281 84.167969 191.320312 83.824219 191.320312 C 83.625 191.320312 83.40625 191.277344 83.15625 191.195312 Z M 83.15625 191.195312 "/>
<path style=" stroke:none;fill-rule:nonzero;fill:rgb(0%,0%,0%);fill-opacity:1;" d="M 88.78125 186.945312 L 89.824219 186.777344 C 89.875 187.195312 90.035156 187.519531 90.300781 187.738281 C 90.578125 187.960938 90.953125 188.070312 91.425781 188.070312 C 91.910156 188.070312 92.269531 187.976562 92.511719 187.777344 C 92.746094 187.585938 92.863281 187.355469 92.863281 187.089844 C 92.863281 186.839844 92.761719 186.652344 92.550781 186.527344 C 92.394531 186.433594 92.035156 186.308594 91.46875 186.152344 C 90.6875 185.960938 90.144531 185.792969 89.84375 185.652344 C 89.550781 185.519531 89.328125 185.320312 89.175781 185.070312 C 89.019531 184.820312 88.949219 184.542969 88.949219 184.238281 C 88.949219 183.960938 89.011719 183.707031 89.136719 183.464844 C 89.261719 183.230469 89.433594 183.027344 89.65625 182.863281 C 89.824219 182.753906 90.042969 182.652344 90.324219 182.570312 C 90.613281 182.488281 90.917969 182.445312 91.238281 182.445312 C 91.722656 182.445312 92.144531 182.519531 92.511719 182.652344 C 92.886719 182.792969 93.160156 182.980469 93.34375 183.214844 C 93.519531 183.457031 93.644531 183.773438 93.71875 184.175781 L 92.675781 184.320312 C 92.636719 184.003906 92.496094 183.753906 92.261719 183.570312 C 92.035156 183.394531 91.722656 183.300781 91.324219 183.300781 C 90.832031 183.300781 90.488281 183.382812 90.28125 183.550781 C 90.074219 183.707031 89.96875 183.894531 89.96875 184.113281 C 89.96875 184.253906 90.011719 184.371094 90.09375 184.464844 C 90.175781 184.589844 90.3125 184.691406 90.511719 184.757812 C 90.605469 184.800781 90.910156 184.894531 91.425781 185.027344 C 92.175781 185.226562 92.699219 185.382812 92.988281 185.507812 C 93.292969 185.632812 93.53125 185.820312 93.699219 186.070312 C 93.863281 186.308594 93.949219 186.605469 93.949219 186.964844 C 93.949219 187.332031 93.84375 187.664062 93.636719 187.964844 C 93.425781 188.273438 93.125 188.519531 92.738281 188.695312 C 92.363281 188.863281 91.925781 188.945312 91.425781 188.945312 C 90.621094 188.945312 90 188.777344 89.574219 188.445312 C 89.15625 188.101562 88.890625 187.601562 88.78125 186.945312 Z M 88.78125 186.945312 "/>
<path style=" stroke:none;fill-rule:nonzero;fill:rgb(0%,0%,0%);fill-opacity:1;" d="M 119.273438 188.800781 L 115.960938 180.214844 L 117.1875 180.214844 L 119.417969 186.445312 C 119.59375 186.945312 119.742188 187.417969 119.855469 187.863281 C 119.992188 187.394531 120.152344 186.917969 120.335938 186.445312 L 122.648438 180.214844 L 123.8125 180.214844 L 120.4375 188.800781 Z M 119.273438 188.800781 "/>
<path style=" stroke:none;fill-rule:nonzero;fill:rgb(0%,0%,0%);fill-opacity:1;" d="M 127.863281 188.027344 C 127.472656 188.363281 127.097656 188.601562 126.738281 188.738281 C 126.375 188.871094 125.988281 188.945312 125.574219 188.945312 C 124.890625 188.945312 124.363281 188.777344 123.988281 188.445312 C 123.625 188.113281 123.449219 187.683594 123.449219 187.152344 C 123.449219 186.851562 123.515625 186.570312 123.65625 186.320312 C 123.792969 186.070312 123.972656 185.871094 124.199219 185.714844 C 124.417969 185.566406 124.667969 185.445312 124.949219 185.363281 C 125.15625 185.320312 125.46875 185.273438 125.886719 185.214844 C 126.746094 185.121094 127.375 184.996094 127.78125 184.839844 C 127.78125 184.707031 127.78125 184.613281 127.78125 184.570312 C 127.78125 184.144531 127.683594 183.839844 127.488281 183.675781 C 127.207031 183.425781 126.808594 183.300781 126.28125 183.300781 C 125.78125 183.300781 125.410156 183.394531 125.175781 183.570312 C 124.9375 183.738281 124.765625 184.042969 124.65625 184.488281 L 123.636719 184.363281 C 123.71875 183.917969 123.863281 183.566406 124.074219 183.300781 C 124.292969 183.023438 124.605469 182.816406 125.011719 182.675781 C 125.425781 182.523438 125.894531 182.445312 126.425781 182.445312 C 126.96875 182.445312 127.394531 182.507812 127.71875 182.632812 C 128.050781 182.757812 128.292969 182.917969 128.449219 183.113281 C 128.613281 183.292969 128.722656 183.527344 128.78125 183.820312 C 128.824219 184.003906 128.84375 184.320312 128.84375 184.777344 L 128.84375 186.195312 C 128.84375 187.167969 128.863281 187.789062 128.90625 188.050781 C 128.949219 188.316406 129.035156 188.566406 129.175781 188.800781 L 128.074219 188.800781 C 127.957031 188.582031 127.890625 188.320312 127.863281 188.027344 Z M 127.78125 185.675781 C 127.390625 185.832031 126.8125 185.960938 126.050781 186.070312 C 125.621094 186.144531 125.3125 186.214844 125.136719 186.300781 C 124.953125 186.371094 124.8125 186.480469 124.71875 186.632812 C 124.621094 186.789062 124.574219 186.957031 124.574219 187.132812 C 124.574219 187.414062 124.675781 187.648438 124.886719 187.839844 C 125.09375 188.023438 125.40625 188.113281 125.824219 188.113281 C 126.222656 188.113281 126.582031 188.023438 126.90625 187.839844 C 127.222656 187.664062 127.457031 187.417969 127.613281 187.113281 C 127.722656 186.878906 127.78125 186.527344 127.78125 186.070312 Z M 127.78125 185.675781 "/>
<path style=" stroke:none;fill-rule:nonzero;fill:rgb(0%,0%,0%);fill-opacity:1;" d="M 130.449219 188.800781 L 130.449219 180.214844 L 131.492188 180.214844 L 131.492188 188.800781 Z M 130.449219 188.800781 "/>
<path style=" stroke:none;fill-rule:nonzero;fill:rgb(0%,0%,0%);fill-opacity:1;" d="M 137.214844 188.800781 L 137.214844 187.882812 C 136.726562 188.589844 136.070312 188.945312 135.238281 188.945312 C 134.871094 188.945312 134.535156 188.871094 134.214844 188.738281 C 133.894531 188.585938 133.652344 188.402344 133.488281 188.195312 C 133.332031 187.988281 133.226562 187.730469 133.175781 187.425781 C 133.132812 187.214844 133.113281 186.882812 133.113281 186.425781 L 133.113281 182.570312 L 134.152344 182.570312 L 134.152344 186.027344 C 134.152344 186.585938 134.179688 186.957031 134.238281 187.132812 C 134.289062 187.414062 134.425781 187.632812 134.632812 187.800781 C 134.851562 187.957031 135.121094 188.027344 135.445312 188.027344 C 135.761719 188.027344 136.058594 187.957031 136.339844 187.800781 C 136.617188 187.632812 136.808594 187.414062 136.925781 187.132812 C 137.035156 186.855469 137.089844 186.445312 137.089844 185.902344 L 137.089844 182.570312 L 138.152344 182.570312 L 138.152344 188.800781 Z M 137.214844 188.800781 "/>
<path style=" stroke:none;fill-rule:nonzero;fill:rgb(0%,0%,0%);fill-opacity:1;" d="M 144.054688 186.800781 L 145.15625 186.925781 C 144.976562 187.566406 144.648438 188.066406 144.179688 188.425781 C 143.71875 188.773438 143.125 188.945312 142.40625 188.945312 C 141.5 188.945312 140.78125 188.667969 140.242188 188.113281 C 139.710938 187.542969 139.449219 186.753906 139.449219 185.738281 C 139.449219 184.695312 139.71875 183.894531 140.261719 183.320312 C 140.804688 182.738281 141.5 182.445312 142.367188 182.445312 C 143.199219 182.445312 143.871094 182.730469 144.386719 183.300781 C 144.914062 183.855469 145.179688 184.648438 145.179688 185.675781 C 145.179688 185.746094 145.179688 185.839844 145.179688 185.964844 L 140.53125 185.964844 C 140.574219 186.648438 140.765625 187.167969 141.117188 187.527344 C 141.460938 187.894531 141.898438 188.070312 142.429688 188.070312 C 142.8125 188.070312 143.140625 187.976562 143.40625 187.777344 C 143.683594 187.570312 143.898438 187.246094 144.054688 186.800781 Z M 140.59375 185.089844 L 144.074219 185.089844 C 144.03125 184.566406 143.898438 184.167969 143.679688 183.902344 C 143.34375 183.503906 142.90625 183.300781 142.367188 183.300781 C 141.875 183.300781 141.46875 183.464844 141.136719 183.800781 C 140.8125 184.121094 140.636719 184.550781 140.59375 185.089844 Z M 140.59375 185.089844 "/>
<path style=" stroke:none;fill-rule:nonzero;fill:rgb(0%,0%,0%);fill-opacity:1;" d="M 146.054688 186.945312 L 147.097656 186.777344 C 147.148438 187.195312 147.3125 187.519531 147.578125 187.738281 C 147.851562 187.960938 148.226562 188.070312 148.703125 188.070312 C 149.1875 188.070312 149.546875 187.976562 149.785156 187.777344 C 150.019531 187.585938 150.140625 187.355469 150.140625 187.089844 C 150.140625 186.839844 150.035156 186.652344 149.828125 186.527344 C 149.671875 186.433594 149.3125 186.308594 148.742188 186.152344 C 147.960938 185.960938 147.421875 185.792969 147.117188 185.652344 C 146.828125 185.519531 146.601562 185.320312 146.453125 185.070312 C 146.296875 184.820312 146.222656 184.542969 146.222656 184.238281 C 146.222656 183.960938 146.285156 183.707031 146.410156 183.464844 C 146.535156 183.230469 146.707031 183.027344 146.929688 182.863281 C 147.097656 182.753906 147.316406 182.652344 147.597656 182.570312 C 147.890625 182.488281 148.191406 182.445312 148.515625 182.445312 C 149 182.445312 149.421875 182.519531 149.785156 182.652344 C 150.160156 182.792969 150.4375 182.980469 150.617188 183.214844 C 150.796875 183.457031 150.921875 183.773438 150.992188 184.175781 L 149.953125 184.320312 C 149.910156 184.003906 149.769531 183.753906 149.535156 183.570312 C 149.3125 183.394531 149 183.300781 148.597656 183.300781 C 148.109375 183.300781 147.765625 183.382812 147.554688 183.550781 C 147.347656 183.707031 147.242188 183.894531 147.242188 184.113281 C 147.242188 184.253906 147.285156 184.371094 147.367188 184.464844 C 147.453125 184.589844 147.585938 184.691406 147.785156 184.757812 C 147.878906 184.800781 148.1875 184.894531 148.703125 185.027344 C 149.453125 185.226562 149.972656 185.382812 150.265625 185.507812 C 150.566406 185.632812 150.804688 185.820312 150.972656 186.070312 C 151.140625 186.308594 151.222656 186.605469 151.222656 186.964844 C 151.222656 187.332031 151.117188 187.664062 150.910156 187.964844 C 150.703125 188.273438 150.398438 188.519531 150.015625 188.695312 C 149.640625 188.863281 149.203125 188.945312 148.703125 188.945312 C 147.894531 188.945312 147.273438 188.777344 146.847656 188.445312 C 146.429688 188.101562 146.164062 187.601562 146.054688 186.945312 Z M 146.054688 186.945312 "/>
<path style="fill:none;stroke-width:1;stroke-linecap:round;stroke-linejoin:round;stroke:rgb(0%,0%,0%);stroke-opacity:1;stroke-miterlimit:10;" d="M 713.347656 397.800781 L 748.254883 397.800781 L 748.254883 413.149414 L 713.347656 413.149414 Z M 713.347656 397.800781 " transform="matrix(1.333333,0,0,1.333333,-893.333333,-410.666667)"/>
<path style=" stroke:none;fill-rule:nonzero;fill:rgb(0%,0%,0%);fill-opacity:1;" d="M 74.046875 133.769531 L 74.046875 125.183594 L 79.839844 125.183594 L 79.839844 126.183594 L 75.195312 126.183594 L 75.195312 128.851562 L 79.214844 128.851562 L 79.214844 129.871094 L 75.195312 129.871094 L 75.195312 133.769531 Z M 74.046875 133.769531 "/>
<path style=" stroke:none;fill-rule:nonzero;fill:rgb(0%,0%,0%);fill-opacity:1;" d="M 87.460938 130.746094 L 88.585938 131.039062 C 88.347656 131.972656 87.917969 132.683594 87.292969 133.183594 C 86.679688 133.675781 85.925781 133.914062 85.023438 133.914062 C 84.105469 133.914062 83.355469 133.726562 82.773438 133.351562 C 82.191406 132.976562 81.742188 132.433594 81.441406 131.726562 C 81.148438 131.007812 81.003906 130.238281 81.003906 129.414062 C 81.003906 128.511719 81.167969 127.726562 81.503906 127.058594 C 81.847656 126.394531 82.335938 125.894531 82.960938 125.558594 C 83.597656 125.214844 84.292969 125.039062 85.042969 125.039062 C 85.902344 125.039062 86.628906 125.261719 87.210938 125.707031 C 87.804688 126.136719 88.214844 126.746094 88.441406 127.539062 L 87.316406 127.789062 C 87.117188 127.164062 86.835938 126.714844 86.460938 126.433594 C 86.085938 126.144531 85.605469 125.996094 85.023438 125.996094 C 84.367188 125.996094 83.820312 126.160156 83.378906 126.476562 C 82.929688 126.800781 82.617188 127.226562 82.441406 127.769531 C 82.257812 128.300781 82.167969 128.839844 82.167969 129.394531 C 82.167969 130.132812 82.273438 130.777344 82.480469 131.332031 C 82.699219 131.871094 83.035156 132.277344 83.480469 132.539062 C 83.925781 132.804688 84.410156 132.933594 84.941406 132.933594 C 85.574219 132.933594 86.113281 132.757812 86.542969 132.394531 C 86.988281 132.019531 87.292969 131.472656 87.460938 130.746094 Z M 87.460938 130.746094 "/>
<path style="fill:none;stroke-width:1;stroke-linecap:round;stroke-linejoin:round;stroke:rgb(0%,0%,0%);stroke-opacity:1;stroke-miterlimit:10;" d="M 752.895508 397.800781 L 787.799805 397.800781 L 787.799805 413.149414 L 752.895508 413.149414 Z M 752.895508 397.800781 " transform="matrix(1.333333,0,0,1.333333,-893.333333,-410.666667)"/>
<path style=" stroke:none;fill-rule:nonzero;fill:rgb(0%,0%,0%);fill-opacity:1;" d="M 126.777344 133.769531 L 126.777344 125.183594 L 132.570312 125.183594 L 132.570312 126.183594 L 127.925781 126.183594 L 127.925781 128.851562 L 131.945312 128.851562 L 131.945312 129.871094 L 127.925781 129.871094 L 127.925781 133.769531 Z M 126.777344 133.769531 "/>
<path style=" stroke:none;fill-rule:nonzero;fill:rgb(0%,0%,0%);fill-opacity:1;" d="M 140.191406 130.746094 L 141.316406 131.039062 C 141.078125 131.972656 140.648438 132.683594 140.023438 133.183594 C 139.410156 133.675781 138.65625 133.914062 137.753906 133.914062 C 136.835938 133.914062 136.085938 133.726562 135.503906 133.351562 C 134.921875 132.976562 134.472656 132.433594 134.171875 131.726562 C 133.878906 131.007812 133.734375 130.238281 133.734375 129.414062 C 133.734375 128.511719 133.898438 127.726562 134.234375 127.058594 C 134.578125 126.394531 135.066406 125.894531 135.691406 125.558594 C 136.328125 125.214844 137.023438 125.039062 137.773438 125.039062 C 138.632812 125.039062 139.359375 125.261719 139.941406 125.707031 C 140.535156 126.136719 140.945312 126.746094 141.171875 127.539062 L 140.046875 127.789062 C 139.847656 127.164062 139.566406 126.714844 139.191406 126.433594 C 138.816406 126.144531 138.335938 125.996094 137.753906 125.996094 C 137.097656 125.996094 136.550781 126.160156 136.109375 126.476562 C 135.660156 126.800781 135.347656 127.226562 135.171875 127.769531 C 134.988281 128.300781 134.898438 128.839844 134.898438 129.394531 C 134.898438 130.132812 135.003906 130.777344 135.210938 131.332031 C 135.429688 131.871094 135.765625 132.277344 136.210938 132.539062 C 136.65625 132.804688 137.140625 132.933594 137.671875 132.933594 C 138.304688 132.933594 138.84375 132.757812 139.273438 132.394531 C 139.71875 132.019531 140.023438 131.472656 140.191406 130.746094 Z M 140.191406 130.746094 "/>
<path style="fill:none;stroke-width:1;stroke-linecap:round;stroke-linejoin:round;stroke:rgb(0%,0%,0%);stroke-opacity:1;stroke-miterlimit:10;" d="M 691.254883 439.601562 L 691.254883 419.046875 " transform="matrix(1.333333,0,0,1.333333,-893.333333,-410.666667)"/>
<path style="fill:none;stroke-width:1;stroke-linecap:butt;stroke-linejoin:miter;stroke:rgb(0%,0%,0%);stroke-opacity:1;stroke-miterlimit:10;" d="M 691.254883 415.047852 L 691.254883 419.046875 M 689.754883 419.046875 L 691.254883 415.047852 L 692.754883 419.046875 " transform="matrix(1.333333,0,0,1.333333,-893.333333,-410.666667)"/>
<path style="fill:none;stroke-width:1;stroke-linecap:round;stroke-linejoin:round;stroke:rgb(0%,0%,0%);stroke-opacity:1;stroke-miterlimit:10;" d="M 691.254883 397.800781 L 691.254883 389.799805 " transform="matrix(1.333333,0,0,1.333333,-893.333333,-410.666667)"/>
<path style="fill:none;stroke-width:1;stroke-linecap:butt;stroke-linejoin:miter;stroke:rgb(0%,0%,0%);stroke-opacity:1;stroke-miterlimit:10;" d="M 691.254883 385.800781 L 691.254883 389.799805 M 689.754883 389.799805 L 691.254883 385.800781 L 692.754883 389.799805 " transform="matrix(1.333333,0,0,1.333333,-893.333333,-410.666667)"/>
<path style="fill:none;stroke-width:1;stroke-linecap:round;stroke-linejoin:round;stroke:rgb(0%,0%,0%);stroke-opacity:1;stroke-miterlimit:10;" d="M 730.799805 397.800781 L 730.799805 389.799805 " transform="matrix(1.333333,0,0,1.333333,-893.333333,-410.666667)"/>
<path style="fill:none;stroke-width:1;stroke-linecap:butt;stroke-linejoin:miter;stroke:rgb(0%,0%,0%);stroke-opacity:1;stroke-miterlimit:10;" d="M 730.799805 385.800781 L 730.799805 389.799805 M 729.299805 389.799805 L 730.799805 385.800781 L 732.299805 389.799805 " transform="matrix(1.333333,0,0,1.333333,-893.333333,-410.666667)"/>
<path style="fill:none;stroke-width:1;stroke-linecap:round;stroke-linejoin:round;stroke:rgb(0%,0%,0%);stroke-opacity:1;stroke-miterlimit:10;" d="M 770.347656 397.800781 L 770.347656 389.799805 " transform="matrix(1.333333,0,0,1.333333,-893.333333,-410.666667)"/>
<path style="fill:none;stroke-width:1;stroke-linecap:butt;stroke-linejoin:miter;stroke:rgb(0%,0%,0%);stroke-opacity:1;stroke-miterlimit:10;" d="M 770.347656 385.800781 L 770.347656 389.799805 M 768.847656 389.799805 L 770.347656 385.800781 L 771.847656 389.799805 " transform="matrix(1.333333,0,0,1.333333,-893.333333,-410.666667)"/>
<path style=" stroke:none;fill-rule:nonzero;fill:rgb(0%,0%,0%);fill-opacity:1;" d="M 185.339844 110.667969 L 185.339844 109.0625 L 186.945312 109.0625 L 186.945312 110.667969 Z M 190.675781 110.667969 L 190.675781 109.0625 L 192.277344 109.0625 L 192.277344 110.667969 Z M 196.007812 110.667969 L 196.007812 109.0625 L 197.613281 109.0625 L 197.613281 110.667969 Z M 196.007812 110.667969 "/>
<path style="fill:none;stroke-width:1;stroke-linecap:round;stroke-linejoin:round;stroke:rgb(0%,0%,0%);stroke-opacity:1;stroke-miterlimit:10;" d="M 839.397461 397.800781 L 874.304688 397.800781 L 874.304688 413.149414 L 839.397461 413.149414 Z M 839.397461 397.800781 " transform="matrix(1.333333,0,0,1.333333,-893.333333,-410.666667)"/>
<path style=" stroke:none;fill-rule:nonzero;fill:rgb(0%,0%,0%);fill-opacity:1;" d="M 242.117188 133.769531 L 242.117188 125.183594 L 247.910156 125.183594 L 247.910156 126.183594 L 243.261719 126.183594 L 243.261719 128.851562 L 247.285156 128.851562 L 247.285156 129.871094 L 243.261719 129.871094 L 243.261719 133.769531 Z M 242.117188 133.769531 "/>
<path style=" stroke:none;fill-rule:nonzero;fill:rgb(0%,0%,0%);fill-opacity:1;" d="M 255.53125 130.746094 L 256.65625 131.039062 C 256.414062 131.972656 255.988281 132.683594 255.363281 133.183594 C 254.75 133.675781 253.992188 133.914062 253.09375 133.914062 C 252.175781 133.914062 251.425781 133.726562 250.84375 133.351562 C 250.257812 132.976562 249.8125 132.433594 249.507812 131.726562 C 249.21875 131.007812 249.070312 130.238281 249.070312 129.414062 C 249.070312 128.511719 249.238281 127.726562 249.570312 127.058594 C 249.914062 126.394531 250.40625 125.894531 251.03125 125.558594 C 251.664062 125.214844 252.363281 125.039062 253.113281 125.039062 C 253.972656 125.039062 254.695312 125.261719 255.28125 125.707031 C 255.875 126.136719 256.285156 126.746094 256.507812 127.539062 L 255.382812 127.789062 C 255.1875 127.164062 254.90625 126.714844 254.53125 126.433594 C 254.15625 126.144531 253.675781 125.996094 253.09375 125.996094 C 252.4375 125.996094 251.890625 126.160156 251.445312 126.476562 C 251 126.800781 250.6875 127.226562 250.507812 127.769531 C 250.328125 128.300781 250.238281 128.839844 250.238281 129.394531 C 250.238281 130.132812 250.34375 130.777344 250.550781 131.332031 C 250.769531 131.871094 251.101562 132.277344 251.550781 132.539062 C 251.992188 132.804688 252.476562 132.933594 253.007812 132.933594 C 253.644531 132.933594 254.179688 132.757812 254.613281 132.394531 C 255.054688 132.019531 255.363281 131.472656 255.53125 130.746094 Z M 255.53125 130.746094 "/>
<path style="fill-rule:nonzero;fill:rgb(40.000001%,74.901962%,100%);fill-opacity:1;stroke-width:1;stroke-linecap:round;stroke-linejoin:round;stroke:rgb(0%,0%,0%);stroke-opacity:1;stroke-miterlimit:10;" d="M 839.397461 366.397461 L 953.397461 366.397461 L 953.397461 383.899414 L 839.397461 383.899414 Z M 839.397461 366.397461 " transform="matrix(1.333333,0,0,1.333333,-893.333333,-410.666667)"/>
<path style=" stroke:none;fill-rule:nonzero;fill:rgb(0%,0%,0%);fill-opacity:1;" d="M 278.164062 93.335938 L 281.476562 84.753906 L 282.683594 84.753906 L 286.203125 93.335938 L 284.914062 93.335938 L 283.914062 90.734375 L 280.308594 90.734375 L 279.371094 93.335938 Z M 280.640625 89.816406 L 283.558594 89.816406 L 282.664062 87.421875 C 282.382812 86.703125 282.183594 86.109375 282.058594 85.648438 C 281.945312 86.207031 281.789062 86.753906 281.578125 87.296875 Z M 280.640625 89.816406 "/>
<path style=" stroke:none;fill-rule:nonzero;fill:rgb(0%,0%,0%);fill-opacity:1;" d="M 289.292969 92.398438 L 289.4375 93.316406 C 289.128906 93.382812 288.863281 93.421875 288.644531 93.421875 C 288.253906 93.421875 287.957031 93.359375 287.75 93.234375 C 287.542969 93.109375 287.386719 92.953125 287.292969 92.753906 C 287.207031 92.5625 287.167969 92.148438 287.167969 91.523438 L 287.167969 87.941406 L 286.394531 87.941406 L 286.394531 87.109375 L 287.167969 87.109375 L 287.167969 85.566406 L 288.230469 84.941406 L 288.230469 87.109375 L 289.292969 87.109375 L 289.292969 87.941406 L 288.230469 87.941406 L 288.230469 91.566406 C 288.230469 91.875 288.238281 92.066406 288.269531 92.148438 C 288.3125 92.234375 288.375 92.304688 288.457031 92.359375 C 288.542969 92.414062 288.65625 92.441406 288.8125 92.441406 C 288.9375 92.441406 289.09375 92.429688 289.292969 92.398438 Z M 289.292969 92.398438 "/>
<path style=" stroke:none;fill-rule:nonzero;fill:rgb(0%,0%,0%);fill-opacity:1;" d="M 292.625 92.398438 L 292.769531 93.316406 C 292.464844 93.382812 292.199219 93.421875 291.980469 93.421875 C 291.589844 93.421875 291.292969 93.359375 291.082031 93.234375 C 290.875 93.109375 290.71875 92.953125 290.625 92.753906 C 290.542969 92.5625 290.5 92.148438 290.5 91.523438 L 290.5 87.941406 L 289.730469 87.941406 L 289.730469 87.109375 L 290.5 87.109375 L 290.5 85.566406 L 291.5625 84.941406 L 291.5625 87.109375 L 292.625 87.109375 L 292.625 87.941406 L 291.5625 87.941406 L 291.5625 91.566406 C 291.5625 91.875 291.574219 92.066406 291.605469 92.148438 C 291.644531 92.234375 291.707031 92.304688 291.792969 92.359375 C 291.875 92.414062 291.988281 92.441406 292.144531 92.441406 C 292.269531 92.441406 292.425781 92.429688 292.625 92.398438 Z M 292.625 92.398438 "/>
<path style=" stroke:none;fill-rule:nonzero;fill:rgb(0%,0%,0%);fill-opacity:1;" d="M 297.894531 91.335938 L 299 91.460938 C 298.816406 92.101562 298.488281 92.601562 298.019531 92.960938 C 297.5625 93.3125 296.96875 93.484375 296.25 93.484375 C 295.34375 93.484375 294.625 93.207031 294.082031 92.648438 C 293.550781 92.082031 293.292969 91.289062 293.292969 90.273438 C 293.292969 89.234375 293.5625 88.429688 294.105469 87.859375 C 294.644531 87.273438 295.34375 86.984375 296.207031 86.984375 C 297.042969 86.984375 297.714844 87.269531 298.230469 87.835938 C 298.753906 88.394531 299.019531 89.1875 299.019531 90.210938 C 299.019531 90.285156 299.019531 90.378906 299.019531 90.503906 L 294.375 90.503906 C 294.417969 91.1875 294.609375 91.707031 294.957031 92.066406 C 295.300781 92.429688 295.738281 92.609375 296.269531 92.609375 C 296.65625 92.609375 296.984375 92.515625 297.25 92.316406 C 297.527344 92.109375 297.738281 91.785156 297.894531 91.335938 Z M 294.4375 89.628906 L 297.917969 89.628906 C 297.875 89.101562 297.738281 88.707031 297.519531 88.441406 C 297.1875 88.039062 296.75 87.835938 296.207031 87.835938 C 295.71875 87.835938 295.3125 88.003906 294.980469 88.335938 C 294.65625 88.660156 294.480469 89.085938 294.4375 89.628906 Z M 294.4375 89.628906 "/>
<path style=" stroke:none;fill-rule:nonzero;fill:rgb(0%,0%,0%);fill-opacity:1;" d="M 300.320312 93.335938 L 300.320312 87.109375 L 301.277344 87.109375 L 301.277344 88.003906 C 301.722656 87.328125 302.382812 86.984375 303.257812 86.984375 C 303.632812 86.984375 303.972656 87.054688 304.277344 87.191406 C 304.597656 87.316406 304.832031 87.492188 304.988281 87.710938 C 305.136719 87.921875 305.246094 88.179688 305.320312 88.484375 C 305.363281 88.679688 305.382812 89.019531 305.382812 89.503906 L 305.382812 93.335938 L 304.320312 93.335938 L 304.320312 89.546875 C 304.320312 89.117188 304.277344 88.796875 304.195312 88.585938 C 304.113281 88.378906 303.964844 88.210938 303.757812 88.085938 C 303.550781 87.953125 303.304688 87.878906 303.027344 87.878906 C 302.582031 87.878906 302.195312 88.023438 301.863281 88.316406 C 301.539062 88.597656 301.382812 89.140625 301.382812 89.941406 L 301.382812 93.335938 Z M 300.320312 93.335938 "/>
<path style=" stroke:none;fill-rule:nonzero;fill:rgb(0%,0%,0%);fill-opacity:1;" d="M 309.308594 92.398438 L 309.453125 93.316406 C 309.144531 93.382812 308.878906 93.421875 308.660156 93.421875 C 308.269531 93.421875 307.972656 93.359375 307.765625 93.234375 C 307.558594 93.109375 307.402344 92.953125 307.308594 92.753906 C 307.222656 92.5625 307.183594 92.148438 307.183594 91.523438 L 307.183594 87.941406 L 306.410156 87.941406 L 306.410156 87.109375 L 307.183594 87.109375 L 307.183594 85.566406 L 308.246094 84.941406 L 308.246094 87.109375 L 309.308594 87.109375 L 309.308594 87.941406 L 308.246094 87.941406 L 308.246094 91.566406 C 308.246094 91.875 308.253906 92.066406 308.285156 92.148438 C 308.328125 92.234375 308.390625 92.304688 308.472656 92.359375 C 308.558594 92.414062 308.671875 92.441406 308.828125 92.441406 C 308.953125 92.441406 309.109375 92.429688 309.308594 92.398438 Z M 309.308594 92.398438 "/>
<path style=" stroke:none;fill-rule:nonzero;fill:rgb(0%,0%,0%);fill-opacity:1;" d="M 310.328125 85.960938 L 310.328125 84.753906 L 311.390625 84.753906 L 311.390625 85.960938 Z M 310.328125 93.335938 L 310.328125 87.109375 L 311.390625 87.109375 L 311.390625 93.335938 Z M 310.328125 93.335938 "/>
<path style=" stroke:none;fill-rule:nonzero;fill:rgb(0%,0%,0%);fill-opacity:1;" d="M 312.597656 90.234375 C 312.597656 89.082031 312.917969 88.226562 313.558594 87.671875 C 314.097656 87.210938 314.75 86.984375 315.515625 86.984375 C 316.375 86.984375 317.078125 87.265625 317.621094 87.816406 C 318.160156 88.375 318.433594 89.144531 318.433594 90.128906 C 318.433594 90.9375 318.308594 91.566406 318.058594 92.023438 C 317.816406 92.484375 317.472656 92.847656 317.015625 93.109375 C 316.558594 93.359375 316.058594 93.484375 315.515625 93.484375 C 314.640625 93.484375 313.933594 93.207031 313.390625 92.648438 C 312.859375 92.082031 312.597656 91.273438 312.597656 90.234375 Z M 313.683594 90.234375 C 313.683594 91.023438 313.855469 91.625 314.203125 92.023438 C 314.546875 92.414062 314.984375 92.609375 315.515625 92.609375 C 316.042969 92.609375 316.480469 92.414062 316.828125 92.023438 C 317.171875 91.625 317.347656 91.015625 317.347656 90.191406 C 317.347656 89.429688 317.171875 88.847656 316.828125 88.441406 C 316.480469 88.039062 316.042969 87.835938 315.515625 87.835938 C 314.984375 87.835938 314.546875 88.039062 314.203125 88.441406 C 313.855469 88.832031 313.683594 89.429688 313.683594 90.234375 Z M 313.683594 90.234375 "/>
<path style=" stroke:none;fill-rule:nonzero;fill:rgb(0%,0%,0%);fill-opacity:1;" d="M 319.667969 93.335938 L 319.667969 87.109375 L 320.628906 87.109375 L 320.628906 88.003906 C 321.070312 87.328125 321.730469 86.984375 322.605469 86.984375 C 322.980469 86.984375 323.320312 87.054688 323.628906 87.191406 C 323.945312 87.316406 324.179688 87.492188 324.335938 87.710938 C 324.488281 87.921875 324.597656 88.179688 324.667969 88.484375 C 324.710938 88.679688 324.730469 89.019531 324.730469 89.503906 L 324.730469 93.335938 L 323.667969 93.335938 L 323.667969 89.546875 C 323.667969 89.117188 323.628906 88.796875 323.542969 88.585938 C 323.460938 88.378906 323.316406 88.210938 323.105469 88.085938 C 322.898438 87.953125 322.652344 87.878906 322.378906 87.878906 C 321.929688 87.878906 321.542969 88.023438 321.210938 88.316406 C 320.886719 88.597656 320.730469 89.140625 320.730469 89.941406 L 320.730469 93.335938 Z M 319.667969 93.335938 "/>
<path style="fill:none;stroke-width:1;stroke-linecap:round;stroke-linejoin:round;stroke:rgb(0%,0%,0%);stroke-opacity:1;stroke-miterlimit:10;" d="M 878.948242 397.800781 L 913.852539 397.800781 L 913.852539 413.149414 L 878.948242 413.149414 Z M 878.948242 397.800781 " transform="matrix(1.333333,0,0,1.333333,-893.333333,-410.666667)"/>
<path style=" stroke:none;fill-rule:nonzero;fill:rgb(0%,0%,0%);fill-opacity:1;" d="M 294.847656 133.769531 L 294.847656 125.183594 L 300.640625 125.183594 L 300.640625 126.183594 L 295.992188 126.183594 L 295.992188 128.851562 L 300.015625 128.851562 L 300.015625 129.871094 L 295.992188 129.871094 L 295.992188 133.769531 Z M 294.847656 133.769531 "/>
<path style=" stroke:none;fill-rule:nonzero;fill:rgb(0%,0%,0%);fill-opacity:1;" d="M 308.261719 130.746094 L 309.386719 131.039062 C 309.144531 131.972656 308.71875 132.683594 308.09375 133.183594 C 307.480469 133.675781 306.722656 133.914062 305.824219 133.914062 C 304.90625 133.914062 304.15625 133.726562 303.574219 133.351562 C 302.988281 132.976562 302.542969 132.433594 302.238281 131.726562 C 301.949219 131.007812 301.800781 130.238281 301.800781 129.414062 C 301.800781 128.511719 301.96875 127.726562 302.300781 127.058594 C 302.644531 126.394531 303.136719 125.894531 303.761719 125.558594 C 304.394531 125.214844 305.09375 125.039062 305.84375 125.039062 C 306.703125 125.039062 307.425781 125.261719 308.011719 125.707031 C 308.605469 126.136719 309.015625 126.746094 309.238281 127.539062 L 308.113281 127.789062 C 307.917969 127.164062 307.636719 126.714844 307.261719 126.433594 C 306.886719 126.144531 306.40625 125.996094 305.824219 125.996094 C 305.167969 125.996094 304.621094 126.160156 304.175781 126.476562 C 303.730469 126.800781 303.417969 127.226562 303.238281 127.769531 C 303.058594 128.300781 302.96875 128.839844 302.96875 129.394531 C 302.96875 130.132812 303.074219 130.777344 303.28125 131.332031 C 303.5 131.871094 303.832031 132.277344 304.28125 132.539062 C 304.722656 132.804688 305.207031 132.933594 305.738281 132.933594 C 306.375 132.933594 306.910156 132.757812 307.34375 132.394531 C 307.785156 132.019531 308.09375 131.472656 308.261719 130.746094 Z M 308.261719 130.746094 "/>
<path style="fill:none;stroke-width:1;stroke-linecap:round;stroke-linejoin:round;stroke:rgb(0%,0%,0%);stroke-opacity:1;stroke-miterlimit:10;" d="M 918.496094 397.800781 L 953.397461 397.800781 L 953.397461 413.149414 L 918.496094 413.149414 Z M 918.496094 397.800781 " transform="matrix(1.333333,0,0,1.333333,-893.333333,-410.666667)"/>
<path style=" stroke:none;fill-rule:nonzero;fill:rgb(0%,0%,0%);fill-opacity:1;" d="M 347.578125 133.769531 L 347.578125 125.183594 L 353.371094 125.183594 L 353.371094 126.183594 L 348.722656 126.183594 L 348.722656 128.851562 L 352.746094 128.851562 L 352.746094 129.871094 L 348.722656 129.871094 L 348.722656 133.769531 Z M 347.578125 133.769531 "/>
<path style=" stroke:none;fill-rule:nonzero;fill:rgb(0%,0%,0%);fill-opacity:1;" d="M 360.992188 130.746094 L 362.117188 131.039062 C 361.875 131.972656 361.449219 132.683594 360.824219 133.183594 C 360.210938 133.675781 359.453125 133.914062 358.554688 133.914062 C 357.636719 133.914062 356.886719 133.726562 356.304688 133.351562 C 355.71875 132.976562 355.273438 132.433594 354.96875 131.726562 C 354.679688 131.007812 354.53125 130.238281 354.53125 129.414062 C 354.53125 128.511719 354.699219 127.726562 355.03125 127.058594 C 355.375 126.394531 355.867188 125.894531 356.492188 125.558594 C 357.125 125.214844 357.824219 125.039062 358.574219 125.039062 C 359.433594 125.039062 360.15625 125.261719 360.742188 125.707031 C 361.335938 126.136719 361.746094 126.746094 361.96875 127.539062 L 360.84375 127.789062 C 360.648438 127.164062 360.367188 126.714844 359.992188 126.433594 C 359.617188 126.144531 359.136719 125.996094 358.554688 125.996094 C 357.898438 125.996094 357.351562 126.160156 356.90625 126.476562 C 356.460938 126.800781 356.148438 127.226562 355.96875 127.769531 C 355.789062 128.300781 355.699219 128.839844 355.699219 129.394531 C 355.699219 130.132812 355.804688 130.777344 356.011719 131.332031 C 356.230469 131.871094 356.5625 132.277344 357.011719 132.539062 C 357.453125 132.804688 357.9375 132.933594 358.46875 132.933594 C 359.105469 132.933594 359.640625 132.757812 360.074219 132.394531 C 360.515625 132.019531 360.824219 131.472656 360.992188 130.746094 Z M 360.992188 130.746094 "/>
<path style="fill:none;stroke-width:1;stroke-linecap:round;stroke-linejoin:round;stroke:rgb(0%,0%,0%);stroke-opacity:1;stroke-miterlimit:10;" d="M 856.852539 397.800781 L 856.852539 389.799805 " transform="matrix(1.333333,0,0,1.333333,-893.333333,-410.666667)"/>
<path style="fill:none;stroke-width:1;stroke-linecap:butt;stroke-linejoin:miter;stroke:rgb(0%,0%,0%);stroke-opacity:1;stroke-miterlimit:10;" d="M 856.852539 385.800781 L 856.852539 389.799805 M 855.352539 389.799805 L 856.852539 385.800781 L 858.352539 389.799805 " transform="matrix(1.333333,0,0,1.333333,-893.333333,-410.666667)"/>
<path style="fill:none;stroke-width:1;stroke-linecap:round;stroke-linejoin:round;stroke:rgb(0%,0%,0%);stroke-opacity:1;stroke-miterlimit:10;" d="M 896.397461 397.800781 L 896.397461 389.799805 " transform="matrix(1.333333,0,0,1.333333,-893.333333,-410.666667)"/>
<path style="fill:none;stroke-width:1;stroke-linecap:butt;stroke-linejoin:miter;stroke:rgb(0%,0%,0%);stroke-opacity:1;stroke-miterlimit:10;" d="M 896.397461 385.800781 L 896.397461 389.799805 M 894.897461 389.799805 L 896.397461 385.800781 L 897.897461 389.799805 " transform="matrix(1.333333,0,0,1.333333,-893.333333,-410.666667)"/>
<path style="fill:none;stroke-width:1;stroke-linecap:round;stroke-linejoin:round;stroke:rgb(0%,0%,0%);stroke-opacity:1;stroke-miterlimit:10;" d="M 935.948242 397.800781 L 935.948242 389.799805 " transform="matrix(1.333333,0,0,1.333333,-893.333333,-410.666667)"/>
<path style="fill:none;stroke-width:1;stroke-linecap:butt;stroke-linejoin:miter;stroke:rgb(0%,0%,0%);stroke-opacity:1;stroke-miterlimit:10;" d="M 935.948242 385.800781 L 935.948242 389.799805 M 934.448242 389.799805 L 935.948242 385.800781 L 937.448242 389.799805 " transform="matrix(1.333333,0,0,1.333333,-893.333333,-410.666667)"/>
<path style="fill-rule:nonzero;fill:rgb(69.803923%,85.09804%,100%);fill-opacity:1;stroke-width:1;stroke-linecap:round;stroke-linejoin:round;stroke:rgb(0%,0%,0%);stroke-opacity:1;stroke-miterlimit:10;" d="M 780.200195 337.601562 L 847 337.601562 L 847 355.100586 L 780.200195 355.100586 Z M 780.200195 337.601562 " transform="matrix(1.333333,0,0,1.333333,-893.333333,-410.666667)"/>
<path style=" stroke:none;fill-rule:nonzero;fill:rgb(0%,0%,0%);fill-opacity:1;" d="M 179.519531 51.917969 L 180.644531 52.207031 C 180.402344 53.140625 179.976562 53.855469 179.351562 54.355469 C 178.738281 54.84375 177.980469 55.082031 177.082031 55.082031 C 176.164062 55.082031 175.414062 54.894531 174.832031 54.519531 C 174.246094 54.144531 173.800781 53.605469 173.496094 52.894531 C 173.207031 52.175781 173.058594 51.40625 173.058594 50.582031 C 173.058594 49.683594 173.226562 48.894531 173.558594 48.230469 C 173.902344 47.5625 174.394531 47.0625 175.019531 46.730469 C 175.652344 46.386719 176.351562 46.207031 177.101562 46.207031 C 177.960938 46.207031 178.683594 46.433594 179.269531 46.875 C 179.863281 47.308594 180.273438 47.917969 180.496094 48.707031 L 179.371094 48.957031 C 179.175781 48.332031 178.894531 47.886719 178.519531 47.605469 C 178.144531 47.3125 177.664062 47.167969 177.082031 47.167969 C 176.425781 47.167969 175.878906 47.328125 175.433594 47.644531 C 174.988281 47.96875 174.675781 48.394531 174.496094 48.9375 C 174.316406 49.46875 174.226562 50.011719 174.226562 50.5625 C 174.226562 51.300781 174.332031 51.949219 174.539062 52.5 C 174.757812 53.042969 175.089844 53.449219 175.539062 53.707031 C 175.980469 53.972656 176.464844 54.105469 176.996094 54.105469 C 177.632812 54.105469 178.167969 53.925781 178.601562 53.5625 C 179.042969 53.1875 179.351562 52.640625 179.519531 51.917969 Z M 179.519531 51.917969 "/>
<path style=" stroke:none;fill-rule:nonzero;fill:rgb(0%,0%,0%);fill-opacity:1;" d="M 181.519531 51.832031 C 181.519531 50.683594 181.835938 49.828125 182.476562 49.269531 C 183.019531 48.8125 183.667969 48.582031 184.433594 48.582031 C 185.292969 48.582031 185.996094 48.863281 186.539062 49.417969 C 187.082031 49.972656 187.351562 50.746094 187.351562 51.730469 C 187.351562 52.535156 187.226562 53.167969 186.976562 53.625 C 186.738281 54.082031 186.394531 54.449219 185.933594 54.707031 C 185.476562 54.957031 184.976562 55.082031 184.433594 55.082031 C 183.558594 55.082031 182.851562 54.808594 182.308594 54.25 C 181.777344 53.683594 181.519531 52.875 181.519531 51.832031 Z M 182.601562 51.832031 C 182.601562 52.625 182.773438 53.222656 183.121094 53.625 C 183.464844 54.015625 183.902344 54.207031 184.433594 54.207031 C 184.960938 54.207031 185.398438 54.015625 185.746094 53.625 C 186.089844 53.222656 186.269531 52.613281 186.269531 51.792969 C 186.269531 51.03125 186.089844 50.449219 185.746094 50.042969 C 185.398438 49.640625 184.960938 49.4375 184.433594 49.4375 C 183.902344 49.4375 183.464844 49.640625 183.121094 50.042969 C 182.773438 50.433594 182.601562 51.03125 182.601562 51.832031 Z M 182.601562 51.832031 "/>
<path style=" stroke:none;fill-rule:nonzero;fill:rgb(0%,0%,0%);fill-opacity:1;" d="M 188.589844 54.9375 L 188.589844 48.707031 L 189.546875 48.707031 L 189.546875 49.605469 C 189.988281 48.925781 190.652344 48.582031 191.527344 48.582031 C 191.902344 48.582031 192.238281 48.65625 192.546875 48.792969 C 192.863281 48.917969 193.097656 49.09375 193.253906 49.3125 C 193.40625 49.519531 193.515625 49.78125 193.589844 50.082031 C 193.628906 50.28125 193.652344 50.621094 193.652344 51.105469 L 193.652344 54.9375 L 192.589844 54.9375 L 192.589844 51.144531 C 192.589844 50.71875 192.546875 50.394531 192.464844 50.1875 C 192.378906 49.980469 192.234375 49.8125 192.027344 49.6875 C 191.816406 49.550781 191.574219 49.480469 191.296875 49.480469 C 190.847656 49.480469 190.464844 49.625 190.128906 49.917969 C 189.808594 50.199219 189.652344 50.738281 189.652344 51.542969 L 189.652344 54.9375 Z M 188.589844 54.9375 "/>
<path style=" stroke:none;fill-rule:nonzero;fill:rgb(0%,0%,0%);fill-opacity:1;" d="M 199.324219 52.667969 L 200.367188 52.792969 C 200.253906 53.515625 199.960938 54.078125 199.492188 54.480469 C 199.019531 54.886719 198.441406 55.082031 197.761719 55.082031 C 196.914062 55.082031 196.230469 54.808594 195.722656 54.25 C 195.207031 53.699219 194.949219 52.894531 194.949219 51.855469 C 194.949219 51.175781 195.058594 50.582031 195.285156 50.082031 C 195.503906 49.582031 195.835938 49.207031 196.285156 48.957031 C 196.742188 48.707031 197.242188 48.582031 197.785156 48.582031 C 198.449219 48.582031 198.996094 48.761719 199.429688 49.105469 C 199.855469 49.4375 200.136719 49.917969 200.261719 50.542969 L 199.242188 50.707031 C 199.144531 50.292969 198.972656 49.980469 198.722656 49.769531 C 198.472656 49.550781 198.167969 49.4375 197.824219 49.4375 C 197.285156 49.4375 196.847656 49.636719 196.511719 50.019531 C 196.191406 50.394531 196.035156 50.996094 196.035156 51.8125 C 196.035156 52.660156 196.191406 53.269531 196.511719 53.644531 C 196.832031 54.019531 197.246094 54.207031 197.761719 54.207031 C 198.179688 54.207031 198.523438 54.082031 198.804688 53.832031 C 199.082031 53.582031 199.253906 53.199219 199.324219 52.667969 Z M 199.324219 52.667969 "/>
<path style=" stroke:none;fill-rule:nonzero;fill:rgb(0%,0%,0%);fill-opacity:1;" d="M 205.324219 54.167969 C 204.933594 54.5 204.558594 54.738281 204.199219 54.875 C 203.835938 55.011719 203.449219 55.082031 203.035156 55.082031 C 202.351562 55.082031 201.824219 54.917969 201.449219 54.582031 C 201.085938 54.25 200.910156 53.824219 200.910156 53.292969 C 200.910156 52.988281 200.976562 52.707031 201.117188 52.457031 C 201.253906 52.207031 201.433594 52.011719 201.660156 51.855469 C 201.878906 51.703125 202.128906 51.582031 202.410156 51.5 C 202.617188 51.457031 202.929688 51.410156 203.347656 51.355469 C 204.207031 51.261719 204.835938 51.136719 205.242188 50.980469 C 205.242188 50.84375 205.242188 50.75 205.242188 50.707031 C 205.242188 50.28125 205.144531 49.980469 204.949219 49.8125 C 204.667969 49.5625 204.269531 49.4375 203.742188 49.4375 C 203.242188 49.4375 202.871094 49.53125 202.636719 49.707031 C 202.398438 49.875 202.226562 50.183594 202.117188 50.625 L 201.097656 50.5 C 201.179688 50.058594 201.324219 49.703125 201.535156 49.4375 C 201.753906 49.160156 202.066406 48.953125 202.472656 48.8125 C 202.886719 48.660156 203.355469 48.582031 203.886719 48.582031 C 204.429688 48.582031 204.855469 48.644531 205.179688 48.769531 C 205.511719 48.894531 205.753906 49.058594 205.910156 49.25 C 206.074219 49.433594 206.183594 49.667969 206.242188 49.957031 C 206.285156 50.140625 206.304688 50.457031 206.304688 50.917969 L 206.304688 52.332031 C 206.304688 53.308594 206.324219 53.925781 206.367188 54.1875 C 206.410156 54.453125 206.496094 54.703125 206.636719 54.9375 L 205.535156 54.9375 C 205.417969 54.71875 205.351562 54.457031 205.324219 54.167969 Z M 205.242188 51.8125 C 204.851562 51.96875 204.273438 52.097656 203.511719 52.207031 C 203.082031 52.28125 202.773438 52.355469 202.597656 52.4375 C 202.414062 52.511719 202.273438 52.621094 202.179688 52.769531 C 202.082031 52.925781 202.035156 53.09375 202.035156 53.269531 C 202.035156 53.550781 202.136719 53.785156 202.347656 53.980469 C 202.554688 54.160156 202.867188 54.25 203.285156 54.25 C 203.683594 54.25 204.042969 54.160156 204.367188 53.980469 C 204.683594 53.800781 204.917969 53.558594 205.074219 53.25 C 205.183594 53.015625 205.242188 52.667969 205.242188 52.207031 Z M 205.242188 51.8125 "/>
<path style=" stroke:none;fill-rule:nonzero;fill:rgb(0%,0%,0%);fill-opacity:1;" d="M 210.25 54 L 210.394531 54.917969 C 210.089844 54.984375 209.824219 55.019531 209.605469 55.019531 C 209.214844 55.019531 208.917969 54.957031 208.707031 54.832031 C 208.5 54.707031 208.34375 54.550781 208.25 54.355469 C 208.167969 54.160156 208.125 53.75 208.125 53.125 L 208.125 49.542969 L 207.355469 49.542969 L 207.355469 48.707031 L 208.125 48.707031 L 208.125 47.167969 L 209.1875 46.542969 L 209.1875 48.707031 L 210.25 48.707031 L 210.25 49.542969 L 209.1875 49.542969 L 209.1875 53.167969 C 209.1875 53.472656 209.199219 53.667969 209.230469 53.75 C 209.269531 53.832031 209.332031 53.90625 209.417969 53.957031 C 209.5 54.015625 209.613281 54.042969 209.769531 54.042969 C 209.894531 54.042969 210.050781 54.03125 210.25 54 Z M 210.25 54 "/>
<path style="fill:none;stroke-width:1;stroke-linecap:round;stroke-linejoin:round;stroke:rgb(0%,0%,0%);stroke-opacity:1;stroke-miterlimit:10;" d="M 730.799805 366.397461 L 730.799805 349.542969 C 730.799805 347.331055 732.589844 345.543945 734.801758 345.543945 C 734.813477 345.543945 734.828125 345.543945 734.839844 345.543945 L 774.299805 345.945312 " transform="matrix(1.333333,0,0,1.333333,-893.333333,-410.666667)"/>
<path style="fill:none;stroke-width:1;stroke-linecap:butt;stroke-linejoin:miter;stroke:rgb(0%,0%,0%);stroke-opacity:1;stroke-miterlimit:10;" d="M 778.301758 345.989258 L 774.299805 345.945312 M 774.317383 344.445312 L 778.301758 345.989258 L 774.285156 347.445312 " transform="matrix(1.333333,0,0,1.333333,-893.333333,-410.666667)"/>
<path style="fill:none;stroke-width:1;stroke-linecap:round;stroke-linejoin:round;stroke:rgb(0%,0%,0%);stroke-opacity:1;stroke-miterlimit:10;" d="M 896.397461 366.397461 L 896.397461 350.014648 C 896.397461 347.808594 894.610352 346.015625 892.398438 346.015625 C 892.395508 346.015625 892.389648 346.015625 892.383789 346.015625 L 852.897461 346.182617 " transform="matrix(1.333333,0,0,1.333333,-893.333333,-410.666667)"/>
<path style="fill:none;stroke-width:1;stroke-linecap:butt;stroke-linejoin:miter;stroke:rgb(0%,0%,0%);stroke-opacity:1;stroke-miterlimit:10;" d="M 848.898438 346.200195 L 852.897461 346.182617 M 852.90625 347.682617 L 848.898438 346.200195 L 852.894531 344.682617 " transform="matrix(1.333333,0,0,1.333333,-893.333333,-410.666667)"/>
<path style="fill:none;stroke-width:1;stroke-linecap:round;stroke-linejoin:round;stroke:rgb(0%,0%,0%);stroke-opacity:1;stroke-miterlimit:10;" d="M 780.200195 308.799805 L 847 308.799805 L 847 326.301758 L 780.200195 326.301758 Z M 780.200195 308.799805 " transform="matrix(1.333333,0,0,1.333333,-893.333333,-410.666667)"/>
<path style=" stroke:none;fill-rule:nonzero;fill:rgb(0%,0%,0%);fill-opacity:1;" d="M 184.449219 16.535156 L 184.449219 7.953125 L 190.238281 7.953125 L 190.238281 8.953125 L 185.59375 8.953125 L 185.59375 11.621094 L 189.613281 11.621094 L 189.613281 12.640625 L 185.59375 12.640625 L 185.59375 16.535156 Z M 184.449219 16.535156 "/>
<path style=" stroke:none;fill-rule:nonzero;fill:rgb(0%,0%,0%);fill-opacity:1;" d="M 197.859375 13.515625 L 198.984375 13.808594 C 198.746094 14.738281 198.320312 15.453125 197.695312 15.953125 C 197.078125 16.441406 196.324219 16.683594 195.421875 16.683594 C 194.507812 16.683594 193.757812 16.496094 193.171875 16.121094 C 192.589844 15.746094 192.140625 15.203125 191.839844 14.496094 C 191.546875 13.777344 191.402344 13.003906 191.402344 12.183594 C 191.402344 11.28125 191.570312 10.496094 191.902344 9.828125 C 192.246094 9.160156 192.734375 8.660156 193.359375 8.328125 C 193.996094 7.984375 194.695312 7.808594 195.445312 7.808594 C 196.304688 7.808594 197.027344 8.03125 197.609375 8.472656 C 198.203125 8.90625 198.617188 9.515625 198.839844 10.308594 L 197.714844 10.558594 C 197.515625 9.933594 197.234375 9.484375 196.859375 9.203125 C 196.484375 8.910156 196.007812 8.765625 195.421875 8.765625 C 194.765625 8.765625 194.21875 8.925781 193.777344 9.246094 C 193.328125 9.566406 193.015625 9.996094 192.839844 10.535156 C 192.65625 11.066406 192.570312 11.609375 192.570312 12.160156 C 192.570312 12.902344 192.671875 13.546875 192.882812 14.097656 C 193.101562 14.640625 193.433594 15.046875 193.882812 15.308594 C 194.324219 15.574219 194.808594 15.703125 195.339844 15.703125 C 195.976562 15.703125 196.511719 15.527344 196.945312 15.160156 C 197.386719 14.785156 197.695312 14.238281 197.859375 13.515625 Z M 197.859375 13.515625 "/>
<path style="fill:none;stroke-width:1;stroke-linecap:round;stroke-linejoin:round;stroke:rgb(0%,0%,0%);stroke-opacity:1;stroke-miterlimit:10;" d="M 813.601562 337.601562 L 813.601562 332.199219 " transform="matrix(1.333333,0,0,1.333333,-893.333333,-410.666667)"/>
<path style="fill:none;stroke-width:1;stroke-linecap:butt;stroke-linejoin:miter;stroke:rgb(0%,0%,0%);stroke-opacity:1;stroke-miterlimit:10;" d="M 813.601562 328.200195 L 813.601562 332.199219 M 812.101562 332.199219 L 813.601562 328.200195 L 815.101562 332.199219 " transform="matrix(1.333333,0,0,1.333333,-893.333333,-410.666667)"/>
<path style="fill:none;stroke-width:1;stroke-linecap:round;stroke-linejoin:round;stroke:rgb(0%,0%,0%);stroke-opacity:1;stroke-miterlimit:10;" d="M 691.254883 426.019531 L 725.300781 426.019531 M 736.301758 426.019531 L 764.848633 426.019531 M 775.84668 426.019531 L 853.172852 426.019531 C 855.381836 426.019531 857.171875 424.229492 857.171875 422.020508 C 857.171875 421.991211 857.171875 421.967773 857.171875 421.941406 L 857.113281 419.046875 " transform="matrix(1.333333,0,0,1.333333,-893.333333,-410.666667)"/>
<path style="fill:none;stroke-width:1;stroke-linecap:butt;stroke-linejoin:miter;stroke:rgb(0%,0%,0%);stroke-opacity:1;stroke-miterlimit:10;" d="M 857.040039 415.047852 L 857.113281 419.046875 M 855.613281 419.073242 L 857.040039 415.047852 L 858.613281 419.014648 " transform="matrix(1.333333,0,0,1.333333,-893.333333,-410.666667)"/>
<path style="fill:none;stroke-width:1;stroke-linecap:round;stroke-linejoin:round;stroke:rgb(0%,0%,0%);stroke-opacity:1;stroke-miterlimit:10;" d="M 730.799805 431.19043 L 764.848633 431.19043 M 775.84668 431.19043 L 892.272461 431.19043 C 894.472656 431.19043 896.262695 429.415039 896.274414 427.214844 L 896.321289 419.046875 " transform="matrix(1.333333,0,0,1.333333,-893.333333,-410.666667)"/>
<path style="fill:none;stroke-width:1;stroke-linecap:butt;stroke-linejoin:miter;stroke:rgb(0%,0%,0%);stroke-opacity:1;stroke-miterlimit:10;" d="M 896.344727 415.047852 L 896.321289 419.046875 M 894.821289 419.038086 L 896.344727 415.047852 L 897.821289 419.055664 " transform="matrix(1.333333,0,0,1.333333,-893.333333,-410.666667)"/>
<path style="fill:none;stroke-width:1;stroke-linecap:round;stroke-linejoin:round;stroke:rgb(0%,0%,0%);stroke-opacity:1;stroke-miterlimit:10;" d="M 770.347656 436.25 L 932.209961 436.25 C 934.418945 436.25 936.211914 434.459961 936.211914 432.250977 C 936.211914 432.239258 936.211914 432.22168 936.211914 432.209961 L 936.083008 419.046875 " transform="matrix(1.333333,0,0,1.333333,-893.333333,-410.666667)"/>
<path style="fill:none;stroke-width:1;stroke-linecap:butt;stroke-linejoin:miter;stroke:rgb(0%,0%,0%);stroke-opacity:1;stroke-miterlimit:10;" d="M 936.041992 415.047852 L 936.083008 419.046875 M 934.583008 419.061523 L 936.041992 415.047852 L 937.583008 419.032227 " transform="matrix(1.333333,0,0,1.333333,-893.333333,-410.666667)"/>
<path style="fill:none;stroke-width:1;stroke-linecap:round;stroke-linejoin:round;stroke:rgb(0%,0%,0%);stroke-opacity:1;stroke-miterlimit:10;" d="M 770.347656 439.601562 L 770.347656 419.046875 " transform="matrix(1.333333,0,0,1.333333,-893.333333,-410.666667)"/>
<path style="fill:none;stroke-width:1;stroke-linecap:butt;stroke-linejoin:miter;stroke:rgb(0%,0%,0%);stroke-opacity:1;stroke-miterlimit:10;" d="M 770.347656 415.047852 L 770.347656 419.046875 M 768.847656 419.046875 L 770.347656 415.047852 L 771.847656 419.046875 " transform="matrix(1.333333,0,0,1.333333,-893.333333,-410.666667)"/>
<path style="fill:none;stroke-width:1;stroke-linecap:round;stroke-linejoin:round;stroke:rgb(0%,0%,0%);stroke-opacity:1;stroke-miterlimit:10;" d="M 730.799805 439.601562 L 730.799805 419.046875 " transform="matrix(1.333333,0,0,1.333333,-893.333333,-410.666667)"/>
<path style="fill:none;stroke-width:1;stroke-linecap:butt;stroke-linejoin:miter;stroke:rgb(0%,0%,0%);stroke-opacity:1;stroke-miterlimit:10;" d="M 730.799805 415.047852 L 730.799805 419.046875 M 729.299805 419.046875 L 730.799805 415.047852 L 732.299805 419.046875 " transform="matrix(1.333333,0,0,1.333333,-893.333333,-410.666667)"/>
</g>
</svg>
